<svg xmlns="http://www.w3.org/2000/svg" xmlns:xlink="http://www.w3.org/1999/xlink" xmlns:lucid="lucid" width="864.57" height="715.51"><g transform="translate(-24.094676346037545 4.166666666666657)" lucid:page-tab-id="XBeRWA7lrbk_"><path d="M0 0h1760v1360H0z" fill="#fff"/><g filter="url(#a)"><path d="M45.6 213.64a6 6 0 0 1 6-6h220.8a6 6 0 0 1 6 6v65.34a6 6 0 0 1-6 6H51.6a6 6 0 0 1-6-6z" stroke="#cfe4ff" fill="#cfe4ff"/><use xlink:href="#b" transform="matrix(1,0,0,1,57.594676346037545,219.64299845375012) translate(8.635802469135797 21.15277777777778)"/><use xlink:href="#c" transform="matrix(1,0,0,1,57.594676346037545,219.64299845375012) translate(97.21604938271604 21.15277777777778)"/><use xlink:href="#d" transform="matrix(1,0,0,1,57.594676346037545,219.64299845375012) translate(61.93827160493827 47.81944444444444)"/></g><g filter="url(#e)"><path d="M432.26 23.33a6 6 0 0 1 6-6H692.4a6 6 0 0 1 6 6v65.34a6 6 0 0 1-6 6H438.26a6 6 0 0 1-6-6z" stroke="#cfe4ff" fill="#cfe4ff"/><use xlink:href="#f" transform="matrix(1,0,0,1,444.2613430127045,29.333333333333343) translate(8.197530864197532 21.15277777777778)"/><use xlink:href="#g" transform="matrix(1,0,0,1,444.2613430127045,29.333333333333343) translate(113.01234567901234 21.15277777777778)"/><use xlink:href="#h" transform="matrix(1,0,0,1,444.2613430127045,29.333333333333343) translate(77.14814814814815 47.81944444444444)"/></g><path d="M465.17 246.8H279.4v-1h185.77zm100.66-6.47l-.08 1-.23 1-.4.93-.53.87-.67.78-.77.67-.88.53-.94.4-1 .23-1 .08h-29.13v-1h29.1l.9-.06.83-.2.8-.33.74-.44.65-.56.56-.66.45-.73.33-.8.2-.83.07-.88V111.54h1z" stroke="#3a414a" stroke-width=".05" fill="#3a414a"/><path d="M279.42 246.8h-.52v-1h.52z" fill="#3a414a"/><path d="M279.44 246.84h-.56v-1.06h.56zm-.5-1v.94h.45v-.94z" stroke="#3a414a" stroke-width=".05" fill="#3a414a"/><path d="M569.97 111.05h-9.27l4.63-14.27z" fill="#3a414a"/><path d="M570.66 111.55H560l5.33-16.38zm-9.27-1h7.88l-3.95-12.15z" stroke="#3a414a" stroke-width=".05" fill="#3a414a"/><use xlink:href="#i" transform="matrix(1,0,0,1,465.1723091848557,235.64299839404322) translate(0 14.222222222222223)"/><path d="M161.28 206.64V118.16" stroke="#3a414a" fill="none"/><path d="M161.78 207.14h-1v-.5h1z" stroke="#3a414a" stroke-width=".05" fill="#3a414a"/><path d="M161.28 96.15L174 117.67h-25.45z" stroke="#3a414a" fill="#fff"/><use xlink:href="#j" transform="matrix(1,0,0,1,96.14385244604546,148.00000000000003) translate(0 14.222222222222223)"/><path d="M570.93 100.67a6 6 0 0 1 6-6h38.67a6 6 0 0 1 6 6v48a6 6 0 0 1-6 6h-38.67a6 6 0 0 1-6-6z" stroke="#000" stroke-opacity="0" fill="#fff" fill-opacity="0"/><use xlink:href="#k" transform="matrix(1,0,0,1,575.928009679371,99.66666666666669) translate(0 29.84722222222222)"/><g filter="url(#l)"><path d="M228.26 397.1a6 6 0 0 1 6-6H504.4a6 6 0 0 1 6 6v37.03a6 6 0 0 1-6 6H234.26a6 6 0 0 1-6-6z" stroke="#cfe4ff" fill="#cfe4ff"/><use xlink:href="#m" transform="matrix(1,0,0,1,240.26134301270451,403.1035362440786) translate(78.9753086419753 19.40277777777778)"/></g><g filter="url(#l)"><path d="M228.26 461.66a6 6 0 0 1 6-6H504.4a6 6 0 0 1 6 6v37.02a6 6 0 0 1-6 6H234.26a6 6 0 0 1-6-6z" stroke="#cfe4ff" fill="#cfe4ff"/><use xlink:href="#n" transform="matrix(1,0,0,1,240.26134301270451,467.6578032742544) translate(5.117283950617292 19.40277777777778)"/><use xlink:href="#o" transform="matrix(1,0,0,1,240.26134301270451,467.6578032742544) translate(178.69753086419752 19.40277777777778)"/></g><g filter="url(#l)"><path d="M228.26 526.2a6 6 0 0 1 6-6H504.4a6 6 0 0 1 6 6v37.04a6 6 0 0 1-6 6H234.26a6 6 0 0 1-6-6z" stroke="#cfe4ff" fill="#cfe4ff"/><use xlink:href="#p" transform="matrix(1,0,0,1,240.26134301270451,532.2120703044303) translate(36.44444444444444 19.40277777777778)"/><use xlink:href="#q" transform="matrix(1,0,0,1,240.26134301270451,532.2120703044303) translate(143.66666666666669 19.40277777777778)"/></g><g filter="url(#r)"><path d="M642.93 430.7a6 6 0 0 1 6-6H852.4a6 6 0 0 1 6 6v37.04a6 6 0 0 1-6 6H648.93a6 6 0 0 1-6-6z" stroke="#cfe4ff" fill="#cfe4ff"/><use xlink:href="#p" transform="matrix(1,0,0,1,654.9280096793708,436.7140030924999) translate(3.5617283950617207 19.40277777777778)"/><use xlink:href="#s" transform="matrix(1,0,0,1,654.9280096793708,436.7140030924999) translate(110.78395061728395 19.40277777777778)"/></g><g filter="url(#r)"><path d="M642.93 493.66a6 6 0 0 1 6-6H852.4a6 6 0 0 1 6 6v37.02a6 6 0 0 1-6 6H648.93a6 6 0 0 1-6-6z" stroke="#cfe4ff" fill="#cfe4ff"/><use xlink:href="#p" transform="matrix(1,0,0,1,654.9280096793708,499.6578032742545) translate(15.93827160493828 19.40277777777778)"/><use xlink:href="#t" transform="matrix(1,0,0,1,654.9280096793708,499.6578032742545) translate(123.16049382716051 19.40277777777778)"/></g><g filter="url(#r)"><path d="M642.93 556.6a6 6 0 0 1 6-6H852.4a6 6 0 0 1 6 6v37.03a6 6 0 0 1-6 6H648.93a6 6 0 0 1-6-6z" stroke="#cfe4ff" fill="#cfe4ff"/><use xlink:href="#p" transform="matrix(1,0,0,1,654.9280096793708,562.6016034560091) translate(9.117283950617292 19.40277777777778)"/><use xlink:href="#u" transform="matrix(1,0,0,1,654.9280096793708,562.6016034560091) translate(116.33950617283952 19.40277777777778)"/></g><g filter="url(#r)"><path d="M642.93 619.54a6 6 0 0 1 6-6H852.4a6 6 0 0 1 6 6v37.03a6 6 0 0 1-6 6H648.93a6 6 0 0 1-6-6z" stroke="#cfe4ff" fill="#cfe4ff"/><use xlink:href="#p" transform="matrix(1,0,0,1,654.9280096793708,625.5454036377637) translate(33.129629629629626 19.40277777777778)"/><use xlink:href="#v" transform="matrix(1,0,0,1,654.9280096793708,625.5454036377637) translate(140.35185185185185 19.40277777777778)"/></g><path d="M641.93 512.17h-59.26a6 6 0 0 0-6 6v20.56a6 6 0 0 1-6 6H533.9" stroke="#3a414a" fill="none"/><path d="M642.43 512.67h-.5v-1h.5z" stroke="#3a414a" stroke-width=".05" fill="#3a414a"/><path d="M511.9 544.73L533.4 532v25.45z" stroke="#3a414a" fill="#fff"/><path d="M641.93 575.1h-59.26a6 6 0 0 1-6-6v-18.38a6 6 0 0 0-6-6H533.9" stroke="#3a414a" fill="none"/><path d="M642.43 575.6h-.5v-1h.5z" stroke="#3a414a" stroke-width=".05" fill="#3a414a"/><path d="M511.9 544.73L533.4 532v25.45z" stroke="#3a414a" fill="#fff"/><path d="M641.93 638.06h-59.26a6 6 0 0 1-6-6v-81.33a6 6 0 0 0-6-6H533.9" stroke="#3a414a" fill="none"/><path d="M642.43 638.56h-.5v-1h.5z" stroke="#3a414a" stroke-width=".05" fill="#3a414a"/><path d="M511.9 544.73L533.4 532v25.45z" stroke="#3a414a" fill="#fff"/><path d="M641.93 449.23h-59.26a6 6 0 0 0-6 6v81.83a6 6 0 0 1-6 6H533.9" stroke="#3a414a" fill="none"/><path d="M642.43 449.73h-.5v-1h.5z" stroke="#3a414a" stroke-width=".05" fill="#3a414a"/><path d="M511.9 543.06l21.5-12.73v25.45z" stroke="#3a414a" fill="#fff"/><path d="M162 285.98v123.64a6 6 0 0 0 6 6h43.38" stroke="#3a414a" fill="none"/><path d="M162.5 286h-1v-.52h1z" stroke="#3a414a" stroke-width=".05" fill="#3a414a"/><path d="M226.14 415.62l-14.26 4.63v-9.27z" stroke="#3a414a" fill="#3a414a"/><path d="M162 285.98v188.2a6 6 0 0 0 6 6h43.38" stroke="#3a414a" fill="none"/><path d="M162.5 286h-1v-.52h1z" stroke="#3a414a" stroke-width=".05" fill="#3a414a"/><path d="M226.14 480.17l-14.26 4.64v-9.26z" stroke="#3a414a" fill="#3a414a"/><path d="M162 285.98v252.75a6 6 0 0 0 6 6h43.38" stroke="#3a414a" fill="none"/><path d="M162.5 286h-1v-.52h1z" stroke="#3a414a" stroke-width=".05" fill="#3a414a"/><path d="M226.14 544.73l-14.26 4.63v-9.27z" stroke="#3a414a" fill="#3a414a"/><path d="M182.67 370.7a6 6 0 0 1 6-6h38.66a6 6 0 0 1 6 6v48a6 6 0 0 1-6 6h-38.66a6 6 0 0 1-6-6z" stroke="#000" stroke-opacity="0" fill="#fff" fill-opacity="0"/><use xlink:href="#w" transform="matrix(1,0,0,1,187.66666666666663,369.71400309249975) translate(0 29.84722222222222)"/><path d="M182.67 435.7a6 6 0 0 1 6-6h38.66a6 6 0 0 1 6 6v48a6 6 0 0 1-6 6h-38.66a6 6 0 0 1-6-6z" stroke="#000" stroke-opacity="0" fill="#fff" fill-opacity="0"/><use xlink:href="#w" transform="matrix(1,0,0,1,187.66666666666663,434.71400309249975) translate(0 29.84722222222222)"/><path d="M182.67 501.7a6 6 0 0 1 6-6h38.66a6 6 0 0 1 6 6v48a6 6 0 0 1-6 6h-38.66a6 6 0 0 1-6-6z" stroke="#000" stroke-opacity="0" fill="#fff" fill-opacity="0"/><use xlink:href="#k" transform="matrix(1,0,0,1,187.66666666666663,500.71400309249975) translate(0 29.84722222222222)"/><g filter="url(#l)"><path d="M228.26 646.82a6 6 0 0 1 6-6H504.4a6 6 0 0 1 6 6v37.03a6 6 0 0 1-6 6H234.26a6 6 0 0 1-6-6z" stroke="#cfe4ff" fill="#cfe4ff"/><use xlink:href="#x" transform="matrix(1,0,0,1,240.26134301270451,652.8200382447153) translate(83.26543209876543 19.40277777777778)"/></g><path d="M162 315.85v343.48a6 6 0 0 0 6 6h43.38" stroke="#3a414a" fill="none"/><path d="M162 286.18l14.85 14.85L162 316.18l-14.85-15.15zM226.14 665.33l-14.26 4.64v-9.27z" stroke="#3a414a" fill="#3a414a"/><path d="M182.67 624.7a6 6 0 0 1 6-6h38.66a6 6 0 0 1 6 6v48a6 6 0 0 1-6 6h-38.66a6 6 0 0 1-6-6z" stroke="#000" stroke-opacity="0" fill="#fff" fill-opacity="0"/><use xlink:href="#k" transform="matrix(1,0,0,1,187.66666666666663,623.7140030924998) translate(0 29.84722222222222)"/><g filter="url(#a)"><path d="M45.6 23.33a6 6 0 0 1 6-6h220.8a6 6 0 0 1 6 6v65.34a6 6 0 0 1-6 6H51.6a6 6 0 0 1-6-6z" stroke="#cfe4ff" fill="#cfe4ff"/><use xlink:href="#y" transform="matrix(1,0,0,1,57.594676346037545,29.333333333333343) translate(0.5493827160493652 21.15277777777778)"/><use xlink:href="#c" transform="matrix(1,0,0,1,57.594676346037545,29.333333333333343) translate(105.30246913580245 21.15277777777778)"/><use xlink:href="#d" transform="matrix(1,0,0,1,57.594676346037545,29.333333333333343) translate(61.93827160493827 47.81944444444444)"/></g><path d="M750.67 23.33a6 6 0 0 1 6-6H830a6 6 0 0 1 6 6V182a6 6 0 0 1-6 6h-73.33a6 6 0 0 1-6-6z" fill="none"/><path d="M750.67 188c5.52 0 10-4.48 10-10v-65.33c0-5.53 4.47-10 10-10-5.53 0-10-4.48-10-10V27.33c0-5.52-4.48-10-10-10" stroke="#3a414a" fill="none"/><use xlink:href="#z" transform="matrix(1,0,0,1,785.6666666666277,22.333333333333343) translate(0 71.61111111111111)"/><use xlink:href="#A" transform="matrix(1,0,0,1,785.6666666666277,22.333333333333343) translate(0 98.27777777777777)"/><path d="M45.84 188a.25.25 0 0 1 .25-.25h696.07a.25.25 0 0 1 .25.25.25.25 0 0 1-.25.25H46.1a.25.25 0 0 1-.26-.25z" fill="none"/><path d="M52.1 187.75h4m4 0h4m4 0h4m4 0h4m4 0h4m4 0h4m4 0h4m4 0h4m4 0h4m4 0h4m4 0h4m4 0h4m4 0h4m4 0h4m4 0h4m4 0h4m4 0h4m4 0h4m4 0h4m4 0h4m4 0h4m4 0h4m4 0h4.02m4 0h4m4 0h4m4 0h4m4 0h4m4 0h4m4 0h4m4 0h4m4 0h4m4 0h4m4 0h4m4 0h4m4 0h4m4 0h4m4 0h4m4 0h4m4 0h4m4 0h4m4 0h4m4 0h4m4 0h4m4 0h4m4 0h4m4 0h4m4 0h4.02m4 0h4m4 0h4m4 0h4m4 0h4m4 0h4m4 0h4m4 0h4m4 0h4m4 0h4m4 0h4m4 0h4m4 0h4m4 0h4m4 0h4m4 0h4m4 0h4m4 0h4m4 0h4m4 0h4m4 0h4m4 0h4m4 0h4m4 0h4m4.02 0h4m4 0h4m4 0h4m4 0h4m4 0h4m4 0h4m4 0h4m4 0h4m4 0h4m4 0h4m4 0h4m4 0h4m4 0h4m4 0h4m4 0h4m4 0h4m4 0H742.27l.03.03.04.02.03.02.02.03.02.04v.02l.02.04v.12l-.03.03-.03.05-.02.03-.03.02-.04.02-.03.02h-2.07m-4 0h-4m-4 0h-4m-4 0h-4m-4 0h-4m-4 0h-4m-4 0h-4m-4 0h-4m-4 0h-4m-4 0h-4m-4 0h-4m-4 0h-4m-4 0h-4m-4 0h-4m-4 0h-4m-4 0h-4m-4 0h-4m-4 0h-4m-4 0h-4.02m-4 0h-4m-4 0h-4m-4 0h-4m-4 0h-4m-4 0h-4m-4 0h-4m-4 0h-4m-4 0h-4m-4 0h-4m-4 0h-4m-4 0h-4m-4 0h-4m-4 0h-4m-4 0h-4m-4 0h-4m-4 0h-4m-4 0h-4m-4 0h-4m-4 0h-4m-4 0h-4m-4 0h-4m-4 0h-4m-4 0h-4.02m-4 0h-4m-4 0h-4m-4 0h-4m-4 0h-4m-4 0h-4m-4 0h-4m-4 0h-4m-4 0h-4m-4 0h-4m-4 0h-4m-4 0h-4m-4 0h-4m-4 0h-4m-4 0h-4m-4 0h-4m-4 0h-4m-4 0h-4m-4 0h-4m-4 0h-4m-4 0h-4m-4 0h-4m-4 0h-4m-4 0h-4.02m-4 0h-4m-4 0h-4m-4 0h-4m-4 0h-4m-4 0h-4m-4 0h-4m-4 0h-4m-4 0h-4m-4 0h-4m-4 0h-4m-4 0h-4m-4 0h-4m-4 0h-4m-4 0h-4m-4 0h-4m-4 0h-4m-4 0h-4m-4 0h-4m-4 0h-4m-4 0h-4m-4 0h-4m-4 0h-4m-4 0h-2.08l-.04-.02-.03-.02-.03-.02-.03-.03-.03-.04v-.02l-.02-.04v-.12l.02-.03.02-.05.02-.03.03-.02.03-.02.04-.02h2.07" stroke="#3a414a" stroke-width=".5" fill="none"/><defs><path fill="#4c535d" d="M199 0l-22-63H83L61 0H9l90-248h61L250 0h-51zm-33-102l-36-108c-10 38-24 72-36 108h72" id="B"/><path fill="#4c535d" d="M135-194c53 0 70 44 70 98 0 56-19 98-73 100-31 1-45-17-59-34 3 33 2 69 2 105H25l-1-265h48c2 10 0 23 3 31 11-24 29-35 60-35zM114-30c33 0 39-31 40-66 0-38-9-64-40-64-56 0-55 130 0 130" id="C"/><path fill="#4c535d" d="M4 7l51-268h42L46 7H4" id="D"/><path fill="#4c535d" d="M24 0v-248h52v208h133V0H24" id="E"/><path fill="#4c535d" d="M25-224v-37h50v37H25zM25 0v-190h50V0H25" id="F"/><path fill="#4c535d" d="M135-194c52 0 70 43 70 98 0 56-19 99-73 100-30 1-46-15-58-35L72 0H24l1-261h50v104c11-23 29-37 60-37zM114-30c31 0 40-27 40-66 0-37-7-63-39-63s-41 28-41 65c0 36 8 64 40 64" id="G"/><g id="b"><use transform="matrix(0.06172839506172839,0,0,0.06172839506172839,0,0)" xlink:href="#B"/><use transform="matrix(0.06172839506172839,0,0,0.06172839506172839,15.987654320987653,0)" xlink:href="#C"/><use transform="matrix(0.06172839506172839,0,0,0.06172839506172839,29.50617283950617,0)" xlink:href="#C"/><use transform="matrix(0.06172839506172839,0,0,0.06172839506172839,43.02469135802469,0)" xlink:href="#D"/><use transform="matrix(0.06172839506172839,0,0,0.06172839506172839,49.19753086419753,0)" xlink:href="#E"/><use transform="matrix(0.06172839506172839,0,0,0.06172839506172839,62.71604938271605,0)" xlink:href="#F"/><use transform="matrix(0.06172839506172839,0,0,0.06172839506172839,68.88888888888889,0)" xlink:href="#G"/></g><path fill="#4c535d" d="M136-208V0H84v-208H4v-40h212v40h-80" id="H"/><path fill="#4c535d" d="M185-48c-13 30-37 53-82 52C43 2 14-33 14-96s30-98 90-98c62 0 83 45 84 108H66c0 31 8 55 39 56 18 0 30-7 34-22zm-45-69c5-46-57-63-70-21-2 6-4 13-4 21h74" id="I"/><path fill="#4c535d" d="M25 0v-261h50V0H25" id="J"/><path fill="#4c535d" d="M220-157c-53 9-28 100-34 157h-49v-107c1-27-5-49-29-50C55-147 81-57 75 0H25l-1-190h47c2 12-1 28 3 38 10-53 101-56 108 0 13-22 24-43 59-42 82 1 51 116 57 194h-49v-107c-1-25-5-48-29-50" id="K"/><path fill="#4c535d" d="M115-3C79 11 28 4 28-45v-112H4v-33h27l15-45h31v45h36v33H77v99c-1 23 16 31 38 25v30" id="L"/><path fill="#4c535d" d="M135-150c-39-12-60 13-60 57V0H25l-1-190h47c2 13-1 29 3 40 6-28 27-53 61-41v41" id="M"/><path fill="#4c535d" d="M123 10C108 53 80 86 19 72V37c35 8 53-11 59-39L3-190h52l48 148c12-52 28-100 44-148h51" id="N"/><g id="c"><use transform="matrix(0.06172839506172839,0,0,0.06172839506172839,0,0)" xlink:href="#H"/><use transform="matrix(0.06172839506172839,0,0,0.06172839506172839,11.851851851851851,0)" xlink:href="#I"/><use transform="matrix(0.06172839506172839,0,0,0.06172839506172839,24.19753086419753,0)" xlink:href="#J"/><use transform="matrix(0.06172839506172839,0,0,0.06172839506172839,30.37037037037037,0)" xlink:href="#I"/><use transform="matrix(0.06172839506172839,0,0,0.06172839506172839,42.71604938271605,0)" xlink:href="#K"/><use transform="matrix(0.06172839506172839,0,0,0.06172839506172839,62.46913580246914,0)" xlink:href="#I"/><use transform="matrix(0.06172839506172839,0,0,0.06172839506172839,74.81481481481482,0)" xlink:href="#L"/><use transform="matrix(0.06172839506172839,0,0,0.06172839506172839,82.16049382716051,0)" xlink:href="#M"/><use transform="matrix(0.06172839506172839,0,0,0.06172839506172839,90.80246913580248,0)" xlink:href="#N"/></g><path fill="#4c535d" d="M169-182c-1-43-94-46-97-3 18 66 151 10 154 114 3 95-165 93-204 36-6-8-10-19-12-30l50-8c3 46 112 56 116 5-17-69-150-10-154-114-4-87 153-88 188-35 5 8 8 18 10 28" id="O"/><path fill="#4c535d" d="M190-63c-7 42-38 67-86 67-59 0-84-38-90-98-12-110 154-137 174-36l-49 2c-2-19-15-32-35-32-30 0-35 28-38 64-6 74 65 87 74 30" id="P"/><path fill="#4c535d" d="M114-157C55-157 80-60 75 0H25v-261h50l-1 109c12-26 28-41 61-42 86-1 58 113 63 194h-50c-7-57 23-157-34-157" id="Q"/><path fill="#4c535d" d="M133-34C117-15 103 5 69 4 32 3 11-16 11-54c-1-60 55-63 116-61 1-26-3-47-28-47-18 1-26 9-28 27l-52-2c7-38 36-58 82-57s74 22 75 68l1 82c-1 14 12 18 25 15v27c-30 8-71 5-69-32zm-48 3c29 0 43-24 42-57-32 0-66-3-65 30 0 17 8 27 23 27" id="R"/><g id="d"><use transform="matrix(0.06172839506172839,0,0,0.06172839506172839,0,0)" xlink:href="#O"/><use transform="matrix(0.06172839506172839,0,0,0.06172839506172839,14.814814814814813,0)" xlink:href="#P"/><use transform="matrix(0.06172839506172839,0,0,0.06172839506172839,27.160493827160494,0)" xlink:href="#Q"/><use transform="matrix(0.06172839506172839,0,0,0.06172839506172839,40.67901234567901,0)" xlink:href="#I"/><use transform="matrix(0.06172839506172839,0,0,0.06172839506172839,53.02469135802469,0)" xlink:href="#K"/><use transform="matrix(0.06172839506172839,0,0,0.06172839506172839,72.77777777777777,0)" xlink:href="#R"/></g><filter id="a" filterUnits="objectBoundingBox" x="-.04" y="-.05" width="1.09" height="1.26"><feOffset result="offOut" in="SourceAlpha" dy="6"/><feGaussianBlur result="blurOut" in="offOut" stdDeviation="5"/><feColorMatrix result="colorOut" in="blurOut" values="0 0 0 0 0 0 0 0 0 0 0 0 0 0 0 0 0 0 0.5019607843137255 0"/><feBlend in="SourceGraphic" in2="colorOut"/></filter><path fill="#4c535d" d="M135-194c87-1 58 113 63 194h-50c-7-57 23-157-34-157-59 0-34 97-39 157H25l-1-190h47c2 12-1 28 3 38 12-26 28-41 61-42" id="S"/><g id="f"><use transform="matrix(0.06172839506172839,0,0,0.06172839506172839,0,0)" xlink:href="#O"/><use transform="matrix(0.06172839506172839,0,0,0.06172839506172839,14.814814814814813,0)" xlink:href="#I"/><use transform="matrix(0.06172839506172839,0,0,0.06172839506172839,27.160493827160494,0)" xlink:href="#K"/><use transform="matrix(0.06172839506172839,0,0,0.06172839506172839,46.91358024691358,0)" xlink:href="#R"/><use transform="matrix(0.06172839506172839,0,0,0.06172839506172839,59.25925925925926,0)" xlink:href="#S"/><use transform="matrix(0.06172839506172839,0,0,0.06172839506172839,72.77777777777777,0)" xlink:href="#L"/><use transform="matrix(0.06172839506172839,0,0,0.06172839506172839,80.12345679012346,0)" xlink:href="#F"/><use transform="matrix(0.06172839506172839,0,0,0.06172839506172839,86.29629629629629,0)" xlink:href="#P"/></g><path fill="#4c535d" d="M67-125c0 53 21 87 73 88 37 1 54-22 65-47l45 17C233-25 199 4 140 4 58 4 20-42 15-125 8-235 124-281 211-232c18 10 29 29 36 50l-46 12c-8-25-30-41-62-41-52 0-71 34-72 86" id="T"/><path fill="#4c535d" d="M110-194c64 0 96 36 96 99 0 64-35 99-97 99-61 0-95-36-95-99 0-62 34-99 96-99zm-1 164c35 0 45-28 45-65 0-40-10-65-43-65-34 0-45 26-45 65 0 36 10 65 43 65" id="U"/><path fill="#4c535d" d="M128 0H69L1-190h53L99-40l48-150h52" id="V"/><g id="g"><use transform="matrix(0.06172839506172839,0,0,0.06172839506172839,0,0)" xlink:href="#T"/><use transform="matrix(0.06172839506172839,0,0,0.06172839506172839,15.987654320987653,0)" xlink:href="#U"/><use transform="matrix(0.06172839506172839,0,0,0.06172839506172839,29.50617283950617,0)" xlink:href="#S"/><use transform="matrix(0.06172839506172839,0,0,0.06172839506172839,43.02469135802469,0)" xlink:href="#V"/><use transform="matrix(0.06172839506172839,0,0,0.06172839506172839,55.37037037037037,0)" xlink:href="#I"/><use transform="matrix(0.06172839506172839,0,0,0.06172839506172839,67.71604938271605,0)" xlink:href="#S"/><use transform="matrix(0.06172839506172839,0,0,0.06172839506172839,81.23456790123457,0)" xlink:href="#L"/><use transform="matrix(0.06172839506172839,0,0,0.06172839506172839,88.58024691358025,0)" xlink:href="#F"/><use transform="matrix(0.06172839506172839,0,0,0.06172839506172839,94.75308641975309,0)" xlink:href="#U"/><use transform="matrix(0.06172839506172839,0,0,0.06172839506172839,108.27160493827161,0)" xlink:href="#S"/></g><path fill="#4c535d" d="M240-174c0 40-23 61-54 70L253 0h-59l-57-94H76V0H24v-248c93 4 217-23 216 74zM76-134c48-2 112 12 112-38 0-48-66-32-112-35v73" id="W"/><path fill="#4c535d" d="M195-6C206 82 75 100 31 46c-4-6-6-13-8-21l49-6c3 16 16 24 34 25 40 0 42-37 40-79-11 22-30 35-61 35-53 0-70-43-70-97 0-56 18-96 73-97 30 0 46 14 59 34l2-30h47zm-90-29c32 0 41-27 41-63 0-35-9-62-40-62-32 0-39 29-40 63 0 36 9 62 39 62" id="X"/><path fill="#4c535d" d="M137-138c1-29-70-34-71-4 15 46 118 7 119 86 1 83-164 76-172 9l43-7c4 19 20 25 44 25 33 8 57-30 24-41C81-84 22-81 20-136c-2-80 154-74 161-7" id="Y"/><g id="h"><use transform="matrix(0.06172839506172839,0,0,0.06172839506172839,0,0)" xlink:href="#W"/><use transform="matrix(0.06172839506172839,0,0,0.06172839506172839,15.987654320987653,0)" xlink:href="#I"/><use transform="matrix(0.06172839506172839,0,0,0.06172839506172839,28.333333333333332,0)" xlink:href="#X"/><use transform="matrix(0.06172839506172839,0,0,0.06172839506172839,41.85185185185185,0)" xlink:href="#F"/><use transform="matrix(0.06172839506172839,0,0,0.06172839506172839,48.02469135802469,0)" xlink:href="#Y"/><use transform="matrix(0.06172839506172839,0,0,0.06172839506172839,60.37037037037037,0)" xlink:href="#L"/><use transform="matrix(0.06172839506172839,0,0,0.06172839506172839,67.71604938271605,0)" xlink:href="#M"/><use transform="matrix(0.06172839506172839,0,0,0.06172839506172839,76.35802469135803,0)" xlink:href="#N"/></g><filter id="e" filterUnits="objectBoundingBox" x="-.04" y="-.05" width="1.08" height="1.26"><feOffset result="offOut" in="SourceAlpha" dy="6"/><feGaussianBlur result="blurOut" in="offOut" stdDeviation="5"/><feColorMatrix result="colorOut" in="blurOut" values="0 0 0 0 0 0 0 0 0 0 0 0 0 0 0 0 0 0 0.5019607843137255 0"/><feBlend in="SourceGraphic" in2="colorOut"/></filter><path fill="#333" d="M25-224v-37h50v37H25zM25 0v-190h50V0H25" id="Z"/><path fill="#333" d="M220-157c-53 9-28 100-34 157h-49v-107c1-27-5-49-29-50C55-147 81-57 75 0H25l-1-190h47c2 12-1 28 3 38 10-53 101-56 108 0 13-22 24-43 59-42 82 1 51 116 57 194h-49v-107c-1-25-5-48-29-50" id="aa"/><path fill="#333" d="M135-194c53 0 70 44 70 98 0 56-19 98-73 100-31 1-45-17-59-34 3 33 2 69 2 105H25l-1-265h48c2 10 0 23 3 31 11-24 29-35 60-35zM114-30c33 0 39-31 40-66 0-38-9-64-40-64-56 0-55 130 0 130" id="ab"/><path fill="#333" d="M110-194c64 0 96 36 96 99 0 64-35 99-97 99-61 0-95-36-95-99 0-62 34-99 96-99zm-1 164c35 0 45-28 45-65 0-40-10-65-43-65-34 0-45 26-45 65 0 36 10 65 43 65" id="ac"/><path fill="#333" d="M135-150c-39-12-60 13-60 57V0H25l-1-190h47c2 13-1 29 3 40 6-28 27-53 61-41v41" id="ad"/><path fill="#333" d="M115-3C79 11 28 4 28-45v-112H4v-33h27l15-45h31v45h36v33H77v99c-1 23 16 31 38 25v30" id="ae"/><path fill="#333" d="M137-138c1-29-70-34-71-4 15 46 118 7 119 86 1 83-164 76-172 9l43-7c4 19 20 25 44 25 33 8 57-30 24-41C81-84 22-81 20-136c-2-80 154-74 161-7" id="af"/><g id="i"><use transform="matrix(0.04938271604938272,0,0,0.04938271604938272,0,0)" xlink:href="#Z"/><use transform="matrix(0.04938271604938272,0,0,0.04938271604938272,4.938271604938272,0)" xlink:href="#aa"/><use transform="matrix(0.04938271604938272,0,0,0.04938271604938272,20.74074074074074,0)" xlink:href="#ab"/><use transform="matrix(0.04938271604938272,0,0,0.04938271604938272,31.555555555555557,0)" xlink:href="#ac"/><use transform="matrix(0.04938271604938272,0,0,0.04938271604938272,42.370370370370374,0)" xlink:href="#ad"/><use transform="matrix(0.04938271604938272,0,0,0.04938271604938272,49.283950617283956,0)" xlink:href="#ae"/><use transform="matrix(0.04938271604938272,0,0,0.04938271604938272,55.1604938271605,0)" xlink:href="#af"/></g><path fill="#333" d="M185-48c-13 30-37 53-82 52C43 2 14-33 14-96s30-98 90-98c62 0 83 45 84 108H66c0 31 8 55 39 56 18 0 30-7 34-22zm-45-69c5-46-57-63-70-21-2 6-4 13-4 21h74" id="ag"/><path fill="#333" d="M144 0l-44-69L55 0H2l70-98-66-92h53l41 62 40-62h54l-67 91 71 99h-54" id="ah"/><path fill="#333" d="M135-194c87-1 58 113 63 194h-50c-7-57 23-157-34-157-59 0-34 97-39 157H25l-1-190h47c2 12-1 28 3 38 12-26 28-41 61-42" id="ai"/><path fill="#333" d="M88-194c31-1 46 15 58 34l-1-101h50l1 261h-48c-2-10 0-23-3-31C134-8 116 4 84 4 32 4 16-41 15-95c0-56 19-97 73-99zm17 164c33 0 40-30 41-66 1-37-9-64-41-64s-38 30-39 65c0 43 13 65 39 65" id="aj"/><g id="j"><use transform="matrix(0.04938271604938272,0,0,0.04938271604938272,0,0)" xlink:href="#ag"/><use transform="matrix(0.04938271604938272,0,0,0.04938271604938272,9.876543209876544,0)" xlink:href="#ah"/><use transform="matrix(0.04938271604938272,0,0,0.04938271604938272,19.75308641975309,0)" xlink:href="#ae"/><use transform="matrix(0.04938271604938272,0,0,0.04938271604938272,25.629629629629633,0)" xlink:href="#ag"/><use transform="matrix(0.04938271604938272,0,0,0.04938271604938272,35.50617283950618,0)" xlink:href="#ai"/><use transform="matrix(0.04938271604938272,0,0,0.04938271604938272,46.320987654320994,0)" xlink:href="#aj"/></g><path fill="#4c535d" d="M101-251c68 0 85 55 85 127S166 4 100 4C33 4 14-52 14-124c0-73 17-127 87-127zm-1 229c47 0 54-49 54-102s-4-102-53-102c-51 0-55 48-55 102 0 53 5 102 54 102" id="ak"/><path fill="#4c535d" d="M33 0v-38h34V0H33" id="al"/><path fill="#4c535d" d="M80-196l47-18 7 23-49 13 32 44-20 13-27-46-27 45-21-12 33-44-49-13 8-23 47 19-2-53h23" id="am"/><g id="k"><use transform="matrix(0.049382716049382706,0,0,0.049382716049382706,0,0)" xlink:href="#ak"/><use transform="matrix(0.049382716049382706,0,0,0.049382716049382706,9.87654320987654,0)" xlink:href="#al"/><use transform="matrix(0.049382716049382706,0,0,0.049382716049382706,14.814814814814811,0)" xlink:href="#al"/><use transform="matrix(0.049382716049382706,0,0,0.049382716049382706,19.75308641975308,0)" xlink:href="#am"/></g><path fill="#4c535d" d="M85 4C-2 5 27-109 22-190h50c7 57-23 150 33 157 60-5 35-97 40-157h50l1 190h-47c-2-12 1-28-3-38-12 25-28 42-61 42" id="an"/><g id="m"><use transform="matrix(0.06172839506172839,0,0,0.06172839506172839,0,0)" xlink:href="#W"/><use transform="matrix(0.06172839506172839,0,0,0.06172839506172839,15.987654320987653,0)" xlink:href="#I"/><use transform="matrix(0.06172839506172839,0,0,0.06172839506172839,28.333333333333332,0)" xlink:href="#Y"/><use transform="matrix(0.06172839506172839,0,0,0.06172839506172839,40.67901234567901,0)" xlink:href="#U"/><use transform="matrix(0.06172839506172839,0,0,0.06172839506172839,54.19753086419753,0)" xlink:href="#an"/><use transform="matrix(0.06172839506172839,0,0,0.06172839506172839,67.71604938271605,0)" xlink:href="#M"/><use transform="matrix(0.06172839506172839,0,0,0.06172839506172839,76.35802469135803,0)" xlink:href="#P"/><use transform="matrix(0.06172839506172839,0,0,0.06172839506172839,88.70370370370371,0)" xlink:href="#I"/></g><filter id="l" filterUnits="objectBoundingBox" x="-.04" y="-.08" width="1.07" height="1.41"><feOffset result="offOut" in="SourceAlpha" dy="6"/><feGaussianBlur result="blurOut" in="offOut" stdDeviation="5"/><feColorMatrix result="colorOut" in="blurOut" values="0 0 0 0 0 0 0 0 0 0 0 0 0 0 0 0 0 0 0.5019607843137255 0"/><feBlend in="SourceGraphic" in2="colorOut"/></filter><path fill="#4c535d" d="M24 0v-248h52V0H24" id="ao"/><g id="n"><use transform="matrix(0.06172839506172839,0,0,0.06172839506172839,0,0)" xlink:href="#ao"/><use transform="matrix(0.06172839506172839,0,0,0.06172839506172839,6.172839506172839,0)" xlink:href="#S"/><use transform="matrix(0.06172839506172839,0,0,0.06172839506172839,19.691358024691358,0)" xlink:href="#Y"/><use transform="matrix(0.06172839506172839,0,0,0.06172839506172839,32.03703703703704,0)" xlink:href="#L"/><use transform="matrix(0.06172839506172839,0,0,0.06172839506172839,39.382716049382715,0)" xlink:href="#M"/><use transform="matrix(0.06172839506172839,0,0,0.06172839506172839,48.02469135802469,0)" xlink:href="#an"/><use transform="matrix(0.06172839506172839,0,0,0.06172839506172839,61.54320987654321,0)" xlink:href="#K"/><use transform="matrix(0.06172839506172839,0,0,0.06172839506172839,81.29629629629629,0)" xlink:href="#I"/><use transform="matrix(0.06172839506172839,0,0,0.06172839506172839,93.64197530864197,0)" xlink:href="#S"/><use transform="matrix(0.06172839506172839,0,0,0.06172839506172839,107.1604938271605,0)" xlink:href="#L"/><use transform="matrix(0.06172839506172839,0,0,0.06172839506172839,114.50617283950618,0)" xlink:href="#R"/><use transform="matrix(0.06172839506172839,0,0,0.06172839506172839,126.85185185185188,0)" xlink:href="#L"/><use transform="matrix(0.06172839506172839,0,0,0.06172839506172839,134.19753086419755,0)" xlink:href="#F"/><use transform="matrix(0.06172839506172839,0,0,0.06172839506172839,140.37037037037038,0)" xlink:href="#U"/><use transform="matrix(0.06172839506172839,0,0,0.06172839506172839,153.88888888888889,0)" xlink:href="#S"/></g><g id="o"><use transform="matrix(0.06172839506172839,0,0,0.06172839506172839,0,0)" xlink:href="#E"/><use transform="matrix(0.06172839506172839,0,0,0.06172839506172839,13.518518518518517,0)" xlink:href="#F"/><use transform="matrix(0.06172839506172839,0,0,0.06172839506172839,19.691358024691358,0)" xlink:href="#G"/><use transform="matrix(0.06172839506172839,0,0,0.06172839506172839,33.20987654320987,0)" xlink:href="#M"/><use transform="matrix(0.06172839506172839,0,0,0.06172839506172839,41.85185185185185,0)" xlink:href="#R"/><use transform="matrix(0.06172839506172839,0,0,0.06172839506172839,54.197530864197525,0)" xlink:href="#M"/><use transform="matrix(0.06172839506172839,0,0,0.06172839506172839,62.8395061728395,0)" xlink:href="#N"/></g><g id="p"><use transform="matrix(0.06172839506172839,0,0,0.06172839506172839,0,0)" xlink:href="#W"/><use transform="matrix(0.06172839506172839,0,0,0.06172839506172839,15.987654320987653,0)" xlink:href="#I"/><use transform="matrix(0.06172839506172839,0,0,0.06172839506172839,28.333333333333332,0)" xlink:href="#Y"/><use transform="matrix(0.06172839506172839,0,0,0.06172839506172839,40.67901234567901,0)" xlink:href="#U"/><use transform="matrix(0.06172839506172839,0,0,0.06172839506172839,54.19753086419753,0)" xlink:href="#an"/><use transform="matrix(0.06172839506172839,0,0,0.06172839506172839,67.71604938271605,0)" xlink:href="#M"/><use transform="matrix(0.06172839506172839,0,0,0.06172839506172839,76.35802469135803,0)" xlink:href="#P"/><use transform="matrix(0.06172839506172839,0,0,0.06172839506172839,88.70370370370371,0)" xlink:href="#I"/></g><g id="q"><use transform="matrix(0.06172839506172839,0,0,0.06172839506172839,0,0)" xlink:href="#O"/><use transform="matrix(0.06172839506172839,0,0,0.06172839506172839,14.814814814814813,0)" xlink:href="#F"/><use transform="matrix(0.06172839506172839,0,0,0.06172839506172839,20.98765432098765,0)" xlink:href="#X"/><use transform="matrix(0.06172839506172839,0,0,0.06172839506172839,34.50617283950617,0)" xlink:href="#S"/><use transform="matrix(0.06172839506172839,0,0,0.06172839506172839,48.02469135802469,0)" xlink:href="#R"/><use transform="matrix(0.06172839506172839,0,0,0.06172839506172839,60.37037037037037,0)" xlink:href="#J"/><use transform="matrix(0.06172839506172839,0,0,0.06172839506172839,66.5432098765432,0)" xlink:href="#Y"/></g><path fill="#4c535d" d="M230 0l2-204L168 0h-37L68-204 70 0H24v-248h70l56 185 57-185h69V0h-46" id="ap"/><g id="s"><use transform="matrix(0.06172839506172839,0,0,0.06172839506172839,0,0)" xlink:href="#ap"/><use transform="matrix(0.06172839506172839,0,0,0.06172839506172839,18.456790123456788,0)" xlink:href="#I"/><use transform="matrix(0.06172839506172839,0,0,0.06172839506172839,30.80246913580247,0)" xlink:href="#L"/><use transform="matrix(0.06172839506172839,0,0,0.06172839506172839,38.148148148148145,0)" xlink:href="#M"/><use transform="matrix(0.06172839506172839,0,0,0.06172839506172839,46.79012345679012,0)" xlink:href="#F"/><use transform="matrix(0.06172839506172839,0,0,0.06172839506172839,52.96296296296296,0)" xlink:href="#P"/><use transform="matrix(0.06172839506172839,0,0,0.06172839506172839,65.30864197530865,0)" xlink:href="#Y"/></g><filter id="r" filterUnits="objectBoundingBox" x="-.05" y="-.08" width="1.09" height="1.41"><feOffset result="offOut" in="SourceAlpha" dy="6"/><feGaussianBlur result="blurOut" in="offOut" stdDeviation="5"/><feColorMatrix result="colorOut" in="blurOut" values="0 0 0 0 0 0 0 0 0 0 0 0 0 0 0 0 0 0 0.5019607843137255 0"/><feBlend in="SourceGraphic" in2="colorOut"/></filter><g id="t"><use transform="matrix(0.06172839506172839,0,0,0.06172839506172839,0,0)" xlink:href="#E"/><use transform="matrix(0.06172839506172839,0,0,0.06172839506172839,13.518518518518517,0)" xlink:href="#U"/><use transform="matrix(0.06172839506172839,0,0,0.06172839506172839,27.037037037037035,0)" xlink:href="#X"/><use transform="matrix(0.06172839506172839,0,0,0.06172839506172839,40.55555555555555,0)" xlink:href="#Y"/></g><g id="u"><use transform="matrix(0.06172839506172839,0,0,0.06172839506172839,0,0)" xlink:href="#O"/><use transform="matrix(0.06172839506172839,0,0,0.06172839506172839,14.814814814814813,0)" xlink:href="#C"/><use transform="matrix(0.06172839506172839,0,0,0.06172839506172839,28.33333333333333,0)" xlink:href="#R"/><use transform="matrix(0.06172839506172839,0,0,0.06172839506172839,40.679012345679006,0)" xlink:href="#S"/><use transform="matrix(0.06172839506172839,0,0,0.06172839506172839,54.197530864197525,0)" xlink:href="#Y"/></g><path fill="#4c535d" d="M24 0v-54h51V0H24" id="aq"/><g id="v"><use transform="matrix(0.06172839506172839,0,0,0.06172839506172839,0,0)" xlink:href="#aq"/><use transform="matrix(0.06172839506172839,0,0,0.06172839506172839,6.172839506172839,0)" xlink:href="#aq"/><use transform="matrix(0.06172839506172839,0,0,0.06172839506172839,12.345679012345679,0)" xlink:href="#aq"/></g><path fill="#4c535d" d="M27 0v-27h64v-190l-56 39v-29l58-41h29v221h61V0H27" id="ar"/><g id="w"><use transform="matrix(0.049382716049382706,0,0,0.049382716049382706,0,0)" xlink:href="#ak"/><use transform="matrix(0.049382716049382706,0,0,0.049382716049382706,9.87654320987654,0)" xlink:href="#al"/><use transform="matrix(0.049382716049382706,0,0,0.049382716049382706,14.814814814814811,0)" xlink:href="#al"/><use transform="matrix(0.049382716049382706,0,0,0.049382716049382706,19.75308641975308,0)" xlink:href="#ar"/></g><path fill="#4c535d" d="M147 0H94L2-248h55l64 206c17-72 42-137 63-206h54" id="as"/><g id="x"><use transform="matrix(0.06172839506172839,0,0,0.06172839506172839,0,0)" xlink:href="#as"/><use transform="matrix(0.06172839506172839,0,0,0.06172839506172839,13.580246913580245,0)" xlink:href="#I"/><use transform="matrix(0.06172839506172839,0,0,0.06172839506172839,25.925925925925924,0)" xlink:href="#M"/><use transform="matrix(0.06172839506172839,0,0,0.06172839506172839,34.5679012345679,0)" xlink:href="#Y"/><use transform="matrix(0.06172839506172839,0,0,0.06172839506172839,46.913580246913575,0)" xlink:href="#F"/><use transform="matrix(0.06172839506172839,0,0,0.06172839506172839,53.08641975308642,0)" xlink:href="#U"/><use transform="matrix(0.06172839506172839,0,0,0.06172839506172839,66.60493827160494,0)" xlink:href="#S"/><use transform="matrix(0.06172839506172839,0,0,0.06172839506172839,80.12345679012346,0)" xlink:href="#Y"/></g><path fill="#4c535d" d="M88-194c31-1 46 15 58 34l-1-101h50l1 261h-48c-2-10 0-23-3-31C134-8 116 4 84 4 32 4 16-41 15-95c0-56 19-97 73-99zm17 164c33 0 40-30 41-66 1-37-9-64-41-64s-38 30-39 65c0 43 13 65 39 65" id="at"/><g id="y"><use transform="matrix(0.06172839506172839,0,0,0.06172839506172839,0,0)" xlink:href="#W"/><use transform="matrix(0.06172839506172839,0,0,0.06172839506172839,15.987654320987653,0)" xlink:href="#I"/><use transform="matrix(0.06172839506172839,0,0,0.06172839506172839,28.333333333333332,0)" xlink:href="#Y"/><use transform="matrix(0.06172839506172839,0,0,0.06172839506172839,40.67901234567901,0)" xlink:href="#U"/><use transform="matrix(0.06172839506172839,0,0,0.06172839506172839,54.19753086419753,0)" xlink:href="#J"/><use transform="matrix(0.06172839506172839,0,0,0.06172839506172839,60.370370370370374,0)" xlink:href="#V"/><use transform="matrix(0.06172839506172839,0,0,0.06172839506172839,72.71604938271605,0)" xlink:href="#I"/><use transform="matrix(0.06172839506172839,0,0,0.06172839506172839,85.06172839506173,0)" xlink:href="#at"/></g><path fill="#3a414a" d="M30 0v-248h187v28H63v79h144v27H63v87h162V0H30" id="au"/><path fill="#3a414a" d="M141 0L90-78 38 0H4l68-98-65-92h35l48 74 47-74h35l-64 92 68 98h-35" id="av"/><path fill="#3a414a" d="M59-47c-2 24 18 29 38 22v24C64 9 27 4 27-40v-127H5v-23h24l9-43h21v43h35v23H59v120" id="aw"/><path fill="#3a414a" d="M100-194c63 0 86 42 84 106H49c0 40 14 67 53 68 26 1 43-12 49-29l28 8c-11 28-37 45-77 45C44 4 14-33 15-96c1-61 26-98 85-98zm52 81c6-60-76-77-97-28-3 7-6 17-6 28h103" id="ax"/><path fill="#3a414a" d="M114-163C36-179 61-72 57 0H25l-1-190h30c1 12-1 29 2 39 6-27 23-49 58-41v29" id="ay"/><path fill="#3a414a" d="M117-194c89-4 53 116 60 194h-32v-121c0-31-8-49-39-48C34-167 62-67 57 0H25l-1-190h30c1 10-1 24 2 32 11-22 29-35 61-36" id="az"/><path fill="#3a414a" d="M141-36C126-15 110 5 73 4 37 3 15-17 15-53c-1-64 63-63 125-63 3-35-9-54-41-54-24 1-41 7-42 31l-33-3c5-37 33-52 76-52 45 0 72 20 72 64v82c-1 20 7 32 28 27v20c-31 9-61-2-59-35zM48-53c0 20 12 33 32 33 41-3 63-29 60-74-43 2-92-5-92 41" id="aA"/><path fill="#3a414a" d="M24 0v-261h32V0H24" id="aB"/><g id="z"><use transform="matrix(0.06172839506172839,0,0,0.06172839506172839,0,0)" xlink:href="#au"/><use transform="matrix(0.06172839506172839,0,0,0.06172839506172839,14.814814814814813,0)" xlink:href="#av"/><use transform="matrix(0.06172839506172839,0,0,0.06172839506172839,25.925925925925924,0)" xlink:href="#aw"/><use transform="matrix(0.06172839506172839,0,0,0.06172839506172839,32.098765432098766,0)" xlink:href="#ax"/><use transform="matrix(0.06172839506172839,0,0,0.06172839506172839,44.44444444444444,0)" xlink:href="#ay"/><use transform="matrix(0.06172839506172839,0,0,0.06172839506172839,51.79012345679012,0)" xlink:href="#az"/><use transform="matrix(0.06172839506172839,0,0,0.06172839506172839,64.1358024691358,0)" xlink:href="#aA"/><use transform="matrix(0.06172839506172839,0,0,0.06172839506172839,76.48148148148148,0)" xlink:href="#aB"/></g><path fill="#3a414a" d="M24-231v-30h32v30H24zM24 0v-190h32V0H24" id="aC"/><path fill="#3a414a" d="M101-234c-31-9-42 10-38 44h38v23H63V0H32v-167H5v-23h27c-7-52 17-82 69-68v24" id="aD"/><path fill="#3a414a" d="M96-169c-40 0-48 33-48 73s9 75 48 75c24 0 41-14 43-38l32 2c-6 37-31 61-74 61-59 0-76-41-82-99-10-93 101-131 147-64 4 7 5 14 7 22l-32 3c-4-21-16-35-41-35" id="aE"/><path fill="#3a414a" d="M135-143c-3-34-86-38-87 0 15 53 115 12 119 90S17 21 10-45l28-5c4 36 97 45 98 0-10-56-113-15-118-90-4-57 82-63 122-42 12 7 21 19 24 35" id="aF"/><g id="A"><use transform="matrix(0.06172839506172839,0,0,0.06172839506172839,0,0)" xlink:href="#aA"/><use transform="matrix(0.06172839506172839,0,0,0.06172839506172839,12.345679012345679,0)" xlink:href="#ay"/><use transform="matrix(0.06172839506172839,0,0,0.06172839506172839,19.691358024691358,0)" xlink:href="#aw"/><use transform="matrix(0.06172839506172839,0,0,0.06172839506172839,25.864197530864196,0)" xlink:href="#aC"/><use transform="matrix(0.06172839506172839,0,0,0.06172839506172839,30.74074074074074,0)" xlink:href="#aD"/><use transform="matrix(0.06172839506172839,0,0,0.06172839506172839,36.91358024691358,0)" xlink:href="#aA"/><use transform="matrix(0.06172839506172839,0,0,0.06172839506172839,49.25925925925926,0)" xlink:href="#aE"/><use transform="matrix(0.06172839506172839,0,0,0.06172839506172839,60.37037037037037,0)" xlink:href="#aw"/><use transform="matrix(0.06172839506172839,0,0,0.06172839506172839,66.5432098765432,0)" xlink:href="#aF"/></g></defs></g></svg>