<svg xmlns="http://www.w3.org/2000/svg" xmlns:xlink="http://www.w3.org/1999/xlink" xmlns:lucid="lucid" width="953.09" height="902.18"><g transform="translate(-12.50000000000017 -13.166666666666728)" lucid:page-tab-id="gGcR96YdEr-4"><path d="M0 0h1760v1360H0z" fill="#fff"/><g filter="url(#a)"><path d="M550.17 51.67a6 6 0 0 1 6-6H938.1a6 6 0 0 1 6 6v134.66a6 6 0 0 1-6 6H556.16a6 6 0 0 1-6-6z" fill="#fff"/><path d="M553.88 46.14l.44-.18.9-.22.95-.07h2m3.97 0h3.98m3.98 0h3.97m3.98 0h3.98m3.98 0h4m3.97 0h3.97m3.98 0h3.98m3.98 0h3.98m3.98 0h3.97m4 0h3.97m3.98 0h3.98m3.98 0h3.98m3.98 0h3.98m3.98 0h3.98m3.98 0h3.97m3.98 0h3.98m4 0h3.97m3.98 0h3.97m3.98 0h3.98m3.98 0h3.98m3.98 0h3.97m3.97 0h3.98m3.98 0h3.98m3.98 0h3.98m3.98 0h3.98m3.98 0h3.98m3.97 0h3.98m3.98 0h4m3.97 0h3.98m3.97 0h3.98m3.98 0h3.98m3.98 0h3.98m3.97 0h3.97m3.98 0h3.98m3.98 0h4m3.96 0h3.98m3.98 0h3.98m3.98 0h3.98m3.98 0h3.97m4 0h3.97m3.98 0h3.98m3.98 0h3.98m3.98 0h3.98m3.98 0h3.98m3.98 0h3.97m3.98 0h3.98m4 0h3.97m3.98 0h3.97m3.98 0h2l.93.07.92.22.43.18m3.24 3.24l.18.43.22.93.07.94v1.98m0 3.96v3.97m0 3.96v3.96m0 3.95v3.96m0 3.97v3.96m0 3.96v3.95m0 3.97v3.96m0 3.96v3.96m0 3.96v3.96m0 3.96v3.96m0 3.96v3.96m0 3.96v3.96m0 3.97v3.96m0 3.97v3.96m0 3.96v3.95m0 3.96v3.97m0 3.96v3.96m0 3.95v1.98l-.08.94-.22.92-.18.42m-3.24 3.24l-.43.18-.92.22-.94.07h-2m-3.98 0h-3.98m-3.97 0h-3.98m-4 0h-3.97m-3.98 0h-3.98m-3.97 0h-3.98m-3.98 0h-3.98m-3.98 0h-3.98m-3.97 0h-3.98m-3.98 0h-3.98m-4 0h-3.97m-3.97 0h-3.98m-3.98 0h-3.98m-3.98 0h-3.98m-3.97 0h-4m-3.97 0h-3.98m-3.98 0h-3.98m-3.98 0h-3.98m-3.98 0h-3.98m-3.98 0h-3.98m-3.97 0h-3.98m-3.98 0h-4m-3.97 0h-3.98m-3.97 0h-3.98m-3.98 0h-3.98m-3.98 0h-3.98m-3.97 0h-3.97m-3.98 0h-3.98m-3.98 0h-3.98m-3.98 0h-3.98m-3.98 0h-3.98m-3.98 0h-3.97m-3.98 0h-3.98m-4 0h-3.97m-3.98 0h-3.97m-3.98 0h-3.98m-3.98 0h-3.98m-3.98 0h-3.97m-3.97 0h-3.98m-3.98 0h-3.98m-4 0h-3.96m-3.98 0h-3.98m-3.98 0h-3.98m-3.98 0h-3.98m-3.97 0h-4m-3.97 0h-3.98m-3.98 0h-3.98m-3.98 0h-3.98m-3.98 0h-2l-.93-.07-.9-.22-.45-.18m-3.24-3.24l-.18-.43-.22-.93-.07-.94v-1.98m0-3.96v-3.97m0-3.96v-3.96m0-3.95v-3.96m0-3.97v-3.96m0-3.96v-3.95m0-3.97v-3.96m0-3.96v-3.96m0-3.96v-3.96m0-3.96v-3.96m0-3.96v-3.96m0-3.96v-3.96m0-3.97V89.3m0-3.97v-3.96m0-3.96v-3.95m0-3.96v-3.97m0-3.96V57.6m0-3.95v-1.98l.07-.94.22-.92.18-.42" stroke="#3a414a" fill="none"/><use xlink:href="#b" transform="matrix(1,0,0,1,562.170563476672,57.666666666666615) translate(0 14.222222222222221)"/><use xlink:href="#c" transform="matrix(1,0,0,1,562.170563476672,57.666666666666615) translate(61.18518518518518 14.222222222222221)"/><use xlink:href="#d" transform="matrix(1,0,0,1,562.170563476672,57.666666666666615) translate(125.28395061728395 14.222222222222221)"/></g><g filter="url(#e)"><path d="M34 244.67a6 6 0 0 1 6-6h898.1a6 6 0 0 1 6 6v643.17a6 6 0 0 1-6 6H40a6 6 0 0 1-6-6z" fill="#fff"/><path d="M37.7 239.14l.45-.18.9-.22.95-.07h2m4 0h4.02m4 0h4.02m4 0h4.02m4 0h4.02m4 0h4.02m4 0h4.02m4 0h4.02m4 0h4m4.02 0h4m4.02 0h4m4.02 0h4m4.02 0h4m4.02 0h4m4.02 0h4m4.02 0h4m4 0h4.02m4 0h4.02m4 0h4.02m4 0h4.02m4 0h4.02m4 0h4.02m4 0h4m4.03 0h4m4 0h4.02m4 0h4.02m4 0h4.02m4 0h4m4.02 0h4m4.02 0h4m4 0h4.02m4 0h4.02m4 0h4.02m4 0h4.02m4 0h4.02m4 0h4.02m4 0h4.02m4 0h4.02m4 0h4m4.02 0h4m4.02 0h4m4.02 0h4m4.02 0h4m4.02 0h4m4.02 0h4m4.02 0h4m4 0h4.02m4 0h4.02m4 0h4.02m4 0h4.02m4 0h4.02m4 0h4.02m4 0H459m4 0h4m4.02 0h4m4.02 0h4m4.02 0h4m4.02 0h4m4.02 0h4m4.02 0h4m4.02 0h4m4 0h4.02m4 0h4.02m4 0h4.02m4 0h4.02m4 0h4.02m4 0h4.02m4 0h4.02m4 0h4m4.02 0h4m4.02 0h4m4.02 0h4m4.02 0h4m4.02 0h4m4.02 0h4m4.02 0h4m4 0h4.02m4 0h4.02m4 0h4.02m4 0h4.02m4 0h4.02m4 0h4.02m4 0h4.02m4 0h4m4.02 0h4m4.02 0h4m4.02 0h4m4.02 0h4m4.02 0h4m4.02 0h4m4.02 0h4m4 0h4.02m4 0h4.02m4 0h4.02m4 0h4.02m4 0h4.02m4 0h4.02m4 0h4.02m4 0h4m4.02 0h4m4.02 0h4m4.02 0h4m4.02 0h4m4.02 0h4m4.02 0h4m4.02 0h4m4 0H892m4 0H900m4 0h4.02m4 0h4.02m4 0h4.02m4 0h4.02m4 0h2l.95.07.92.22.43.18m3.24 3.24l.18.43.22.93.07.94v2m0 4.03v4.02m0 4.02v4.02m0 4.02v4.02m0 4.02v4m0 4.04v4m0 4.03v4.02m0 4v4.03m0 4.03v4m0 4.03v4.03m0 4.02v4.02m0 4.02v4m0 4.03v4.02m0 4.02v4.02m0 4v4.03m0 4.02v4.02m0 4.02v4m0 4.03v4.02m0 4.02v4.02m0 4v4.03m0 4.02v4.02m0 4.02v4m0 4.03v4.02m0 4.02v4.02m0 4v4.03m0 4.02v4.02m0 4.02v4m0 4.03v4.02m0 4.02v4.02m0 4v4.03m0 4.02v4.02m0 4.02v4m0 4.03v4.02m0 4.02V512m0 4v4.03m0 4.02v4.02m0 4.02v4m0 4.03v4.02m0 4.02v4.02m0 4v4.03m0 4.02v4.02m0 4v4.03m0 4.03v4m0 4.03v4.02m0 4.02v4.02m0 4.02v4.02m0 4.02v4.02m0 4.02v4.02m0 4.02v4.02m0 4.02v4.02m0 4.02v4.02m0 4.02v4.02m0 4.02v4.02m0 4.02v4.02m0 4.02v4.02m0 4.02v4.02m0 4.02v4.02m0 4.02v4.02m0 4.02v4.02m0 4.02v4.02m0 4.02v4.02m0 4.02v4.02m0 4.02v4.02m0 4.02v4.02m0 4.02v4.02m0 4.02v4.02m0 4.02v4.02m0 4.02v4.02m0 4.02v4.02m0 4.02v4.02m0 4.02v4.02m0 4.02v4.02m0 4.02v4.02m0 4.02v4.02m0 4.02v4.02m0 4.02v4.02m0 4.02v4.02m0 4v4.03m0 4.02v4.02m0 4.02v4.02m0 4v2.02l-.08.94-.22.92-.18.43m-3.24 3.24l-.43.18-.92.22-.94.07h-2m-4.02 0h-4m-4.02 0h-4m-4.02 0h-4m-4.02 0h-4m-4.02 0h-4m-4.02 0h-4m-4 0h-4.02m-4 0h-4.02m-4 0h-4.02m-4 0h-4.02m-4 0h-4.02m-4 0h-4.02m-4 0h-4.02m-4 0h-4m-4.02 0h-4m-4.02 0h-4m-4.02 0h-4m-4.02 0h-4m-4.02 0h-4m-4.02 0h-4m-4.02 0h-4m-4.02 0h-4m-4 0h-4.02m-4 0h-4.02m-4 0h-4.02m-4 0h-4.02m-4 0h-4.02m-4 0h-4.02m-4 0h-4m-4.02 0h-4m-4.02 0h-4m-4.02 0h-4m-4.02 0h-4m-4.02 0h-4m-4.02 0h-4m-4.02 0h-4m-4 0h-4.02m-4 0h-4.02m-4 0h-4.02m-4 0h-4.02m-4 0h-4.02m-4 0h-4.02m-4 0h-4.02m-4 0h-4m-4.02 0h-4m-4.02 0h-4m-4.02 0h-4m-4.02 0h-4m-4.02 0h-4m-4.02 0h-4m-4.02 0h-4m-4 0h-4.02m-4 0h-4.02m-4 0h-4.02m-4 0h-4.02m-4 0h-4.02m-4 0H479m-4 0H471m-4 0h-4m-4.02 0h-4m-4.02 0h-4m-4.02 0h-4m-4.02 0h-4m-4.02 0h-4m-4.02 0h-4m-4.02 0h-4m-4 0h-4.02m-4 0h-4.02m-4 0h-4.02m-4 0h-4.02m-4 0h-4.02m-4 0h-4.02m-4 0h-4.02m-4 0h-4.02m-4 0h-4m-4.02 0h-4m-4.02 0h-4m-4.02 0h-4m-4.02 0h-4m-4.02 0h-4m-4.02 0h-4m-4 0h-4.02m-4 0h-4.02m-4 0h-4.02m-4 0h-4.02m-4 0h-4.02m-4 0h-4.02m-4 0h-4.02m-4 0h-4m-4.03 0h-4m-4 0h-4m-4.02 0h-4m-4.02 0h-4m-4.02 0h-4m-4.02 0h-4m-4.02 0h-4m-4.02 0h-4m-4 0h-4.02m-4 0h-4.02m-4 0h-4.02m-4 0h-4.02m-4 0h-4.02m-4 0h-4.02m-4 0h-4.02m-4 0h-4m-4.02 0h-4m-4.02 0h-4m-4.02 0h-4m-4.02 0h-4m-4.02 0h-4m-4.02 0h-4m-4.02 0h-2l-.94-.07-.9-.22-.45-.18m-3.23-3.24l-.18-.43-.23-.92-.07-.93v-2m0-4.03v-4.03m0-4.02v-4.02m0-4.02v-4.02m0-4.02v-4.02m0-4.02v-4.02m0-4.02v-4.02m0-4.02v-4.02m0-4.02v-4.02m0-4.02v-4.02m0-4.02v-4.02m0-4.02v-4.02m0-4.02v-4.02m0-4.02v-4.02m0-4.02v-4.02m0-4.02v-4.02m0-4.02v-4.02m0-4.02v-4.02m0-4.02v-4.02m0-4.02v-4.02m0-4.02v-4.02m0-4.02V717m0-4.02v-4.02m0-4.02v-4.02m0-4.02v-4.02m0-4.02v-4.02m0-4.02v-4.02m0-4.02v-4.02m0-4.02v-4.02m0-4.02v-4.02m0-4.02v-4.02m0-4.02v-4.02m0-4.02v-4.02m0-4.02v-4.02m0-4.02v-4.02m0-4.02v-4.02m0-4.02v-4m0-4.03v-4.03m0-4.02v-4.02m0-4.03v-4m0-4.03v-4.02m0-4.02v-4.02m0-4v-4.03m0-4.02v-4.02m0-4.02v-4m0-4.03v-4.02m0-4.02V516m0-4v-4.03m0-4.02v-4.02m0-4.02v-4m0-4.03v-4.02m0-4.02v-4.02m0-4v-4.03m0-4.02v-4.02m0-4.02v-4m0-4.03v-4.02m0-4.02v-4.02m0-4v-4.03m0-4.02v-4.02m0-4.02v-4m0-4.03v-4.02m0-4.02v-4.02m0-4v-4.03m0-4.02v-4.02m0-4.02v-4m0-4.03v-4.02m0-4.02v-4.02m0-4v-4.03m0-4.02v-4.02m0-4.02v-4m0-4.03v-4.02m0-4.02V315m0-4v-4.02m0-4.03v-4m0-4.03v-4.03m0-4.02v-4.02m0-4.03v-4m0-4.03v-4.02m0-4.02v-4.02m0-4.02v-4.02m0-4.02v-2l.07-.95.22-.92.17-.42" stroke="#3a414a" fill="none"/><use xlink:href="#f" transform="matrix(1,0,0,1,46.00000000000017,250.66666666666669) translate(0 14.222222222222221)"/><use xlink:href="#g" transform="matrix(1,0,0,1,46.00000000000017,250.66666666666669) translate(92.69135802469134 14.222222222222221)"/></g><g filter="url(#h)"><path d="M34 40.67a6 6 0 0 1 6-6h448a6 6 0 0 1 6 6v142.66a6 6 0 0 1-6 6H40a6 6 0 0 1-6-6z" fill="#fff"/><path d="M37.7 35.14l.45-.18.9-.22.95-.07h2m4 0h4m4 0h4m4 0h4m4 0h4m4 0h4m4 0h4m4 0h4m4 0h4m4 0h4m4 0h4m4 0h4m4 0h4m4 0h4m4 0h4m4 0h4m4 0h4m4 0h4m4 0h4m4 0h4m4 0h4m4 0h4m4 0h4m4 0h4m4 0h4m4 0h4m4 0h4m4 0h4m4 0h4m4 0h4m4 0h4m4 0h4m4 0h4m4 0h4m4 0h4m4 0h4m4 0h4m4 0h4m4 0h4m4 0h4m4 0h4m4 0h4m4 0h4m4 0h4m4 0h4m4 0h4m4 0h4m4 0h4m4 0h4m4 0h4m4 0h4m4 0h4m4 0h4m4 0h4m4 0h4m4 0h4m4 0h2l.94.07.9.22.45.18m3.23 3.24l.18.43.23.93.07.94v1.98m0 3.96v3.97m0 3.97v3.96m0 3.96v3.97m0 3.96v3.95m0 3.97v3.96m0 3.96v3.96m0 3.97v3.96m0 3.96v3.96m0 3.96v3.96m0 3.96v3.97m0 3.97v3.96m0 3.97v3.96m0 3.96v3.97m0 3.95v3.96m0 3.97v3.97m0 3.96v3.96m0 3.97v3.96m0 3.95v1.98l-.07.94-.22.92-.17.42m-3.24 3.24l-.45.18-.9.22-.95.07h-2m-4 0h-4m-4 0h-4m-4 0h-4m-4 0h-4m-4 0h-4m-4 0h-4m-4 0h-4m-4 0h-4m-4 0h-4m-4 0h-4m-4 0h-4m-4 0h-4m-4 0h-4m-4 0h-4m-4 0h-4m-4 0h-4m-4 0h-4m-4 0h-4m-4 0h-4m-4 0h-4m-4 0h-4m-4 0h-4m-4 0h-4m-4 0h-4m-4 0h-4m-4 0h-4m-4 0h-4m-4 0h-4m-4 0h-4m-4 0h-4m-4 0h-4m-4 0h-4m-4 0h-4m-4 0h-4m-4 0h-4m-4 0h-4m-4 0h-4m-4 0h-4m-4 0h-4m-4 0h-4m-4 0h-4m-4 0h-4m-4 0h-4m-4 0h-4m-4 0h-4m-4 0h-4m-4 0h-4m-4 0h-4m-4 0h-4m-4 0h-4m-4 0h-4m-4 0h-4m-4 0h-4m-4 0h-4m-4 0h-4m-4 0h-2l-.94-.07-.9-.22-.45-.18m-3.23-3.24l-.18-.43-.23-.93-.07-.94v-1.98m0-3.96v-3.97m0-3.97v-3.96m0-3.96v-3.97m0-3.96v-3.95m0-3.97v-3.96m0-3.96v-3.96m0-3.97v-3.96m0-3.96v-3.96m0-3.96v-3.96m0-3.96v-3.97m0-3.97v-3.96m0-3.97v-3.96m0-3.96V78.3m0-3.95V70.4m0-3.97v-3.97m0-3.96v-3.96m0-3.97V46.6m0-3.95v-1.98l.07-.94.22-.92.17-.42" stroke="#3a414a" fill="none"/><use xlink:href="#i" transform="matrix(1,0,0,1,46.00000000000017,46.66666666666673) translate(0 14.222222222222221)"/><use xlink:href="#g" transform="matrix(1,0,0,1,46.00000000000017,46.66666666666673) translate(132.79012345679013 14.222222222222221)"/></g><g filter="url(#j)"><path d="M66.67 87.33a6 6 0 0 1 6-6h383.47a6 6 0 0 1 6 6v65.34a6 6 0 0 1-6 6H72.67a6 6 0 0 1-6-6z" stroke="#1071e5" fill="#1071e5"/><use xlink:href="#k" transform="matrix(1,0,0,1,78.66666666666708,93.33333333333343) translate(36.40123456790124 21.15277777777778)"/><use xlink:href="#l" transform="matrix(1,0,0,1,78.66666666666708,93.33333333333343) translate(141.15432098765433 21.15277777777778)"/><use xlink:href="#m" transform="matrix(1,0,0,1,78.66666666666708,93.33333333333343) translate(250.47530864197532 21.15277777777778)"/><use xlink:href="#n" transform="matrix(1,0,0,1,78.66666666666708,93.33333333333343) translate(31.827160493827193 44.263888888888886)"/><use xlink:href="#o" transform="matrix(1,0,0,1,78.66666666666708,93.33333333333343) translate(108.76543209876544 44.263888888888886)"/><use xlink:href="#p" transform="matrix(1,0,0,1,78.66666666666708,93.33333333333343) translate(163.58024691358025 44.263888888888886)"/><use xlink:href="#q" transform="matrix(1,0,0,1,78.66666666666708,93.33333333333343) translate(239.53086419753086 44.263888888888886)"/></g><g filter="url(#r)"><path d="M66.67 444.67a6 6 0 0 1 6-6h383.47a6 6 0 0 1 6 6V510a6 6 0 0 1-6 6H72.67a6 6 0 0 1-6-6z" stroke="#1071e5" fill="#1071e5"/><use xlink:href="#s" transform="matrix(1,0,0,1,78.66666666666708,450.66666666666663) translate(24.179012345679013 21.15277777777778)"/><use xlink:href="#l" transform="matrix(1,0,0,1,78.66666666666708,450.66666666666663) translate(153.37654320987656 21.15277777777778)"/><use xlink:href="#m" transform="matrix(1,0,0,1,78.66666666666708,450.66666666666663) translate(262.6975308641976 21.15277777777778)"/><use xlink:href="#n" transform="matrix(1,0,0,1,78.66666666666708,450.66666666666663) translate(38.641975308642 44.263888888888886)"/><use xlink:href="#t" transform="matrix(1,0,0,1,78.66666666666708,450.66666666666663) translate(115.58024691358025 44.263888888888886)"/><use xlink:href="#u" transform="matrix(1,0,0,1,78.66666666666708,450.66666666666663) translate(247.62962962962962 44.263888888888886)"/></g><g filter="url(#v)"><path d="M66.67 305.1a6 6 0 0 1 6-6h383.47a6 6 0 0 1 6 6v65.32a6 6 0 0 1-6 6H72.67a6 6 0 0 1-6-6z" stroke="#1071e5" fill="#1071e5"/><use xlink:href="#k" transform="matrix(1,0,0,1,78.66666666666711,311.09072978303766) translate(36.40123456790124 21.15277777777778)"/><use xlink:href="#l" transform="matrix(1,0,0,1,78.66666666666711,311.09072978303766) translate(141.15432098765433 21.15277777777778)"/><use xlink:href="#w" transform="matrix(1,0,0,1,78.66666666666711,311.09072978303766) translate(250.47530864197532 21.15277777777778)"/><use xlink:href="#x" transform="matrix(1,0,0,1,78.66666666666711,311.09072978303766) translate(41.604938271604965 44.263888888888886)"/><use xlink:href="#y" transform="matrix(1,0,0,1,78.66666666666711,311.09072978303766) translate(118.54320987654322 44.263888888888886)"/><use xlink:href="#u" transform="matrix(1,0,0,1,78.66666666666711,311.09072978303766) translate(244.66666666666666 44.263888888888886)"/></g><path d="M264.4 298.1V175.54" stroke="#3a414a" fill="none"/><path d="M264.9 298.6h-1v-.52h1z" stroke="#3a414a" stroke-width=".05" fill="#3a414a"/><path d="M264.4 160.78l4.64 14.27h-9.27z" stroke="#3a414a" fill="#fff"/><path d="M264.4 437.67V393.3" stroke="#3a414a" fill="none"/><path d="M264.9 438.17h-1v-.52h1z" stroke="#3a414a" stroke-width=".05" fill="#3a414a"/><path d="M264.4 378.54l4.64 14.27h-9.27z" stroke="#3a414a" fill="#fff"/><g filter="url(#z)"><path d="M541.1 40.67a6 6 0 0 1 6-6h379.25a6 6 0 0 1 6 6v134.66a6 6 0 0 1-6 6H547.1a6 6 0 0 1-6-6z" fill="#fff"/><path d="M544.8 35.14l.44-.18.9-.22.95-.07h2m4.04 0h4.04m4.03 0h4.05m4.03 0h4.04m4.03 0h4.03m4.04 0h4.04m4.03 0h4.02m4.04 0h4.03m4.03 0h4.03m4.04 0h4.03m4.04 0h4.03m4.04 0h4.03m4.03 0h4.04m4.03 0H654m4.04 0h4.04m4.03 0h4.05m4.03 0h4.04m4.03 0h4.03m4.04 0h4.03m4.04 0h4.02m4.04 0h4.03m4.03 0h4.03m4.04 0h4.03m4.04 0h4.03m4.03 0h4.04m4.03 0h4.04m4.03 0h4.04m4.04 0h4.04m4.03 0h4.05m4.03 0h4.04m4.03 0h4.03m4.04 0h4.03m4.04 0h4.02m4.04 0h4.03m4.03 0h4.03m4.04 0h4.03m4.04 0h4.03m4.04 0h4.03m4.04 0h4.04m4.03 0h4.04m4.04 0h4.04m4.03 0h4.05m4.03 0h4.04m4.03 0h4.04m4.02 0h4.03m4.04 0h4.02m4.04 0h4.03m4.03 0h2l.95.07.92.22.43.18m3.24 3.24l.18.43.22.93.08.94v1.98m0 3.96v3.97m0 3.96v3.96m0 3.95v3.96m0 3.97v3.96m0 3.96v3.95m0 3.97v3.96m0 3.96v3.96m0 3.96v3.96m0 3.96v3.96m0 3.96v3.96m0 3.96v3.96m0 3.97v3.96m0 3.97v3.96m0 3.96v3.95m0 3.96v3.97m0 3.96v3.96m0 3.95v1.98l-.08.94-.22.92-.18.42m-3.24 3.24l-.43.18-.92.22-.93.07h-2.02m-4.04 0h-4.04m-4.04 0h-4.03m-4.05 0h-4.03m-4.03 0h-4.05m-4.03 0h-4.04m-4.03 0h-4.04m-4.02 0h-4.04m-4.03 0h-4.03m-4.03 0h-4.03m-4.03 0h-4.03m-4.04 0h-4.03m-4.04 0h-4.03m-4.04 0h-4.03m-4.04 0h-4.04m-4.04 0h-4.03m-4.04 0h-4.04m-4.04 0h-4.03m-4.03 0h-4.04m-4.03 0H771m-4.02 0h-4.04m-4.03 0h-4.03m-4.03 0h-4.04m-4.03 0h-4.03m-4.04 0h-4.03m-4.04 0h-4.03m-4.04 0h-4.03m-4.04 0h-4.04m-4.04 0h-4.03m-4.04 0h-4.04m-4.04 0h-4.03m-4.03 0h-4.04m-4.03 0h-4.04m-4.02 0h-4.04m-4.03 0h-4.03m-4.03 0h-4.04m-4.03 0h-4.03m-4.04 0h-4.03m-4.04 0h-4.03m-4.04 0h-4.03m-4.04 0h-4.04m-4.04 0h-4.03m-4.04 0h-4.04m-4.03 0h-4.05m-4.03 0h-4.04m-4.03 0h-4.04m-4.02 0h-4.04m-4.03 0h-2l-.95-.07-.9-.22-.45-.18m-3.23-3.24l-.2-.43-.2-.93-.08-.94v-1.98m0-3.96v-3.97m0-3.96v-3.96m0-3.95v-3.96m0-3.97v-3.96m0-3.96v-3.95m0-3.97v-3.96m0-3.96v-3.96m0-3.96v-3.96m0-3.96v-3.96m0-3.96v-3.96m0-3.96v-3.96m0-3.97V78.3m0-3.97v-3.96m0-3.96v-3.95m0-3.96v-3.97m0-3.96V46.6m0-3.95v-1.98l.06-.94.23-.92.17-.42" stroke="#3a414a" fill="none"/><use xlink:href="#A" transform="matrix(1,0,0,1,553.0911906202293,46.66666666666673) translate(0 14.222222222222221)"/><use xlink:href="#B" transform="matrix(1,0,0,1,553.0911906202293,46.66666666666673) translate(65.03703703703702 14.222222222222221)"/><use xlink:href="#C" transform="matrix(1,0,0,1,553.0911906202293,46.66666666666673) translate(82.76543209876542 14.222222222222221)"/><use xlink:href="#D" transform="matrix(1,0,0,1,553.0911906202293,46.66666666666673) translate(147.85185185185185 14.222222222222221)"/></g><g filter="url(#E)"><path d="M563.1 87.33a6 6 0 0 1 6-6h330.13a6 6 0 0 1 6 6v65.34a6 6 0 0 1-6 6H569.1a6 6 0 0 1-6-6z" stroke="#1071e5" fill="#1071e5"/><use xlink:href="#k" transform="matrix(1,0,0,1,575.0911906202291,93.33333333333343) translate(9.901234567901241 21.15277777777778)"/><use xlink:href="#l" transform="matrix(1,0,0,1,575.0911906202291,93.33333333333343) translate(114.65432098765433 21.15277777777778)"/><use xlink:href="#m" transform="matrix(1,0,0,1,575.0911906202291,93.33333333333343) translate(223.97530864197532 21.15277777777778)"/><use xlink:href="#n" transform="matrix(1,0,0,1,575.0911906202291,93.33333333333343) translate(16.043209876543244 44.263888888888886)"/><use xlink:href="#F" transform="matrix(1,0,0,1,575.0911906202291,93.33333333333343) translate(92.9814814814815 44.263888888888886)"/><use xlink:href="#u" transform="matrix(1,0,0,1,575.0911906202291,93.33333333333343) translate(217.22839506172835 44.263888888888886)"/></g><g filter="url(#G)"><path d="M568.05 791.18a6 6 0 0 1 6-6h325.2a6 6 0 0 1 6 6v65.33a6 6 0 0 1-6 6h-325.2a6 6 0 0 1-6-6z" stroke="#1071e5" fill="#1071e5"/><use xlink:href="#k" transform="matrix(1,0,0,1,580.051504192008,797.1778469953111) translate(7.401234567901241 21.15277777777778)"/><use xlink:href="#l" transform="matrix(1,0,0,1,580.051504192008,797.1778469953111) translate(112.15432098765433 21.15277777777778)"/><use xlink:href="#m" transform="matrix(1,0,0,1,580.051504192008,797.1778469953111) translate(221.47530864197532 21.15277777777778)"/><use xlink:href="#H" transform="matrix(1,0,0,1,580.051504192008,797.1778469953111) translate(6.111111111111143 44.263888888888886)"/><use xlink:href="#I" transform="matrix(1,0,0,1,580.051504192008,797.1778469953111) translate(46.55555555555558 44.263888888888886)"/><use xlink:href="#J" transform="matrix(1,0,0,1,580.051504192008,797.1778469953111) translate(161.96296296296296 44.263888888888886)"/><use xlink:href="#K" transform="matrix(1,0,0,1,580.051504192008,797.1778469953111) translate(239.8395061728395 44.263888888888886)"/></g><g filter="url(#L)"><path d="M568.05 629.35a6 6 0 0 1 6-6H899.4a6 6 0 0 1 6 6v65.33a6 6 0 0 1-6 6H574.03a6 6 0 0 1-6-6z" stroke="#008a0e" stroke-width="3" fill="#008a0e"/><use xlink:href="#M" transform="matrix(1,0,0,1,580.051504192008,635.3481262327418) translate(7.864197530864203 31.27777777777778)"/><use xlink:href="#N" transform="matrix(1,0,0,1,580.051504192008,635.3481262327418) translate(99.1604938271605 31.27777777777778)"/><use xlink:href="#O" transform="matrix(1,0,0,1,580.051504192008,635.3481262327418) translate(219.77777777777777 31.27777777777778)"/></g><path d="M734.66 436.67h-1v-2.03h1zm0-6.1h-1v-4.06h1zm0-8.12h-1v-4.06h1zm0-8.12h-1v-4.06h1zm0-8.13h-1v-4.06h1zm0-8.12h-1v-4.06h1zm0-8.12h-1v-4.06h1zm0-8.13h-1v-4.06h1zm0-8.12h-1v-4.05h1zm0-8.1h-1v-4.07h1zm0-8.13h-1v-4.07h1zm0-8.13h-1v-4.06h1zm0-8.12h-1v-4.06h1zm0-8.12h-1v-4.07h1zm0-32.5h-1v-4.06h1zm0-8.12h-1v-4.06h1zm0-8.12h-1v-4.06h1zm0-8.13h-1v-4.06h1zm0-8.12h-1v-4.05h1zm0-8.1h-1v-4.07h1zm0-8.14h-1v-4.06h1zm0-8.12h-1v-4.06h1zm0-8.12h-1v-4.06h1zm0-8.13h-1v-4.07h1zm0-8.13h-1v-4.06h1zm0-8.12h-1v-2.03h1z" stroke="#3a414a" stroke-width=".05" fill="#3a414a"/><path d="M734.66 437.17h-1v-.52h1z" fill="#3a414a"/><path d="M734.7 437.2h-1.06v-.57h1.05zm-1-.52v.46h.94v-.46z" stroke="#3a414a" stroke-width=".05" fill="#3a414a"/><path d="M738.8 208.72h-9.27l4.63-14.27z" fill="#3a414a"/><path d="M739.5 209.22h-10.66l5.32-16.4zm-9.28-1h7.9l-3.96-12.15z" stroke="#3a414a" stroke-width=".05" fill="#3a414a"/><use xlink:href="#P" transform="matrix(1,0,0,1,675.0273784717224,304.333335197695) translate(0 14.222222222222223)"/><g filter="url(#Q)"><path d="M633.5 444.67a6 6 0 0 1 6-6h189.33a6 6 0 0 1 6 6V510a6 6 0 0 1-6 6H639.5a6 6 0 0 1-6-6z" stroke="#6f7681" stroke-width="3" fill="#6f7681"/><use xlink:href="#R" transform="matrix(1,0,0,1,645.4965142741917,450.66666666666674) translate(28.691358024691354 31.27777777777778)"/></g><path d="M631.5 477.33h-1.92m-3.82 0h-3.83m-3.82 0h-3.82m-3.83 0h-3.82m-3.83 0h-3.83m-3.82 0h-3.83m-3.83 0h-3.83m-3.83 0h-3.82m-3.83 0h-3.84m-3.82 0h-3.83m-3.8 0h-3.84m-3.83 0h-3.8m-3.8 0h-3.8m-3.8 0h-3.78m-3.8 0h-3.8m-3.78 0h-3.8m-3.8 0h-3.8m-3.78 0h-3.8m-3.8 0h-3.8m-3.8 0h-3.78m-3.8 0h-1.9" stroke="#3a414a" fill="none"/><path d="M632 477.83h-.52v-1h.52z" stroke="#3a414a" stroke-width=".05" fill="#3a414a"/><path d="M464.26 477.33l14.27-4.63v9.27z" stroke="#3a414a" fill="#3a414a"/><use xlink:href="#S" transform="matrix(1,0,0,1,489.64123512475,430.6666666666667) translate(0 14.222222222222223)"/><use xlink:href="#T" transform="matrix(1,0,0,1,489.64123512475,430.6666666666667) translate(36.44444444444445 14.222222222222223)"/><use xlink:href="#U" transform="matrix(1,0,0,1,489.64123512475,430.6666666666667) translate(0 35.55555555555556)"/><path d="M566.15 661.43l-.18 1-2-.38.2-.98zm-5.96-1.1l-.2 1-3.96-.75.18-.98zm-7.95-1.47l-.18 1-3.98-.75.18-.97zm-7.95-1.46l-.18.98-3.97-.73.18-1zm-7.94-1.47l-.18.98-3.97-.72.2-.98zm-7.94-1.47l-.18 1-3.98-.75.2-.97zm-7.95-1.47l-.18.98-3.98-.74.18-.98zm-7.94-1.47l-.18.98-3.97-.72.18-1zm-7.94-1.47l-.2.98-3.97-.73.18-.97zm-7.96-1.47l-.18.98-3.97-.74.17-.98zm-7.94-1.48l-.18 1-3.97-.75.18-.98zm-8.22-1.5l.27.04-.18.98-.3-.05-3.66-.8.22-1zm-7.6-1.66l-.22.97-3.95-.85.23-.98zm-7.9-1.72l-.2.98-3.96-.86.2-.98zm-7.9-1.7l-.2.96-3.95-.85.2-.98zm-7.9-1.73l-.2 1-3.95-.87.2-.97zm-7.88-1.7l-.22.98-3.94-.86.2-.98zm-7.9-1.72l-.2.98-3.96-.86.22-.98zm-7.9-1.7l-.2.97-3.95-.86.2-1zm-65.03-19.2l3.15 1.24-.37.92-3.17-1.25-.6-.27.4-.92zm-4.27-1.9l-.4.9-3.7-1.64.4-.9zm-7.33-3.34l-.45.9-3.62-1.8.45-.9zm-8.22-4.08l.98.5-.44.88-1-.5-2.6-1.4.5-.88zm-8.8-4.83l2.7 1.48-.5.9-2.7-1.5-.82-.5.52-.86zm-4.26-2.58l-.53.85-3.45-2.1.5-.84zm-6.82-4.3l-.55.83-3.37-2.23.55-.84zm-6.64-4.56l-.6.8-3.26-2.37.6-.8zm-6.46-4.83l-.62.78-3.16-2.5.62-.8zm-9.14-7.62l2.9 2.5-.64.77-2.93-2.53-.14-.14.7-.73zM293.8 572l1.67 1.57-.68.73-1.7-1.6-1.22-1.24.7-.7zm-4.2-4.3l.16.18-.7.7-.2-.2-2.54-2.8.75-.68zm-6.98-8.05l1.83 2.2-.77.64-1.84-2.23-.7-.93.8-.6zm-5.34-7.33l2.23 3.2-.8.57-2.25-3.23-.07-.12.84-.53zm-4.03-6.65l1.82 3.15-.87.5-1.83-3.17-.18-.35.87-.46zm-3-6l1 2.1-.9.4-1-2.1-.67-1.6.92-.38zm-2.16-5.47l.04.15-.93.35-.06-.17-.57-1.77.95-.3z" stroke="#3a414a" stroke-width=".05" fill="#3a414a"/><path d="M271.55 531.43l-9.15 1.5 2.27-14.83z" fill="#3a414a"/><path d="M272.3 531.8l-10.5 1.73 2.6-17.03zm-9.3.52l7.8-1.28-5.87-11.34z" stroke="#3a414a" stroke-width=".05" fill="#3a414a"/><path d="M566.55 661.5v1.02l-.6-.1.2-1z" fill="#3a414a"/><path d="M566.58 661.5v1.05l-.65-.12.2-1.03zm-.6.9l.55.1v-.97l-.37-.07z" stroke="#3a414a" stroke-width=".05" fill="#3a414a"/><use xlink:href="#V" transform="matrix(1,0,0,1,364.0737404108033,615.4679660775505) translate(0 14.222222222222223)"/><path d="M833.17 619.46l-.3 1.97-1-.15.3-1.98zm1.22-7.9l-.62 3.95-1-.14.62-3.95zm1.2-7.88l-.6 3.94-1-.15.62-3.94zm1.23-7.9l-.6 3.95-1-.15.6-3.94zm1.43-7.83l-.73 3.92-.98-.18.73-3.93zm1.46-7.85l-.73 3.92-1-.18.74-3.92zm1.46-7.85l-.73 3.93-.98-.2.73-3.9zm1.46-7.85l-.73 3.93-.97-.2.73-3.9zm1.46-7.85l-.73 3.93-.98-.18.72-3.93zm1.56-7.8l-.57 2.48-.27 1.4-.98-.18.26-1.43.6-2.5zm1.8-7.78l-.9 3.9-.98-.24.9-3.9zm1.78-7.78l-.9 3.88-.97-.23.9-3.9zm1.8-7.8l-.9 3.9-.98-.23.9-3.9zm1.78-7.75l-.04.13-.86 3.74-.97-.23.86-3.76.06-.16zm2.12-7.7l-1.06 3.85-.97-.27 1.07-3.84zm2.1-7.7L856 506.1l-.97-.26 1.06-3.85zm2.13-7.7l-1.06 3.85-.95-.26 1.05-3.85zm2.25-7.63l-1.06 3.3-.13.48-.97-.26.14-.52 1.07-3.3zm2.44-7.6l-1.22 3.8-.95-.3 1.2-3.8zm2.44-7.6l-1.22 3.8-.95-.3 1.22-3.8zm2.47-7.57l-.3.8-.95 2.96-.95-.3.95-2.97.32-.83zm2.82-7.47l-1.42 3.74-.94-.36 1.4-3.73zm2.8-7.47l-1.4 3.75-.94-.36 1.4-3.74zm2.82-7.46l-1.4 3.74-.95-.36 1.4-3.73zm2.8-7.47l-1.4 3.73-.93-.35 1.4-3.73zm2.83-7.47l-1.4 3.73-.94-.35 1.4-3.74zm1.4-3.74l-.93-.35.83-2.2h1.07zm9.8-26.17l-.85 2.28h-1.07l.98-2.64zm2.6-7.58l-1.23 3.8-.95-.3 1.22-3.8zm2.44-7.6l-1.23 3.8-.95-.3 1.22-3.8zm2.15-7.7l-1.06 3.84-.97-.27 1.06-3.85zm1.98-7.76l-.84 3.6-.1.3-.95-.26.07-.28.83-3.6zm1.77-7.8l-.1.6-.78 3.3-.97-.22.76-3.3.12-.57zm1.47-7.86l-.74 3.93-.98-.2.74-3.9zm1.26-7.9l-.57 3.95-1-.14.58-3.94zm1.12-7.93l-.05.46-.5 3.52-1-.14.5-3.5.05-.43zm.8-7.94l-.4 3.97-1-.1.4-3.97zm.72-7.97l-.1 1.84-.22 2.16-1-.1.22-2.14.1-1.82zm.47-7.97l-.23 3.98-1-.06.24-4zm.47-7.98l-.23 4-1-.07.24-4zm.14-8l-.07 4-1-.03.07-4zm.13-8l-.07 4h-1l.07-4zm.12-7.37l-.06 3.4-1-.02.05-3.38-.02-.6 1-.02zm-.13-4.6l-1 .02-.1-4 1-.02zm-.2-8l-1 .04-.1-4 1-.03zm-.2-7.97l-1 .02-.12-4h1zm-.22-7.98l-1 .02-.1-4h1zm-.35-8l-1 .07-.27-3.98 1-.08zm-.54-7.96l-1 .07-.27-3.98.98-.06zm-.55-7.97l-1 .07-.26-3.98 1-.07zm-.53-7.96l-1 .08-.27-4 1-.05zm-.55-7.96l-1 .07-.13-1.98 1-.07z" stroke="#3a414a" stroke-width=".05" fill="#3a414a"/><path d="M912.38 208.37l-9.25.63 3.65-14.54z" fill="#3a414a"/><path d="M913.1 208.82l-10.63.73 4.2-16.7zm-9.32-.36l7.88-.54-4.77-11.85z" stroke="#3a414a" stroke-width=".05" fill="#3a414a"/><path d="M832.87 621.42l-.07.43h-1l.08-.6z" fill="#3a414a"/><path d="M832.9 621.4l-.08.47h-1.06l.1-.63zm-1.08.42h.96l.06-.38-.94-.15z" stroke="#3a414a" stroke-width=".05" fill="#3a414a"/><use xlink:href="#V" transform="matrix(1,0,0,1,860.5771207399138,399.1752318635523) translate(0 14.222222222222223)"/><path d="M737.16 603.35h-2v-23h2zm0-44.34h-2v-40.5h2zM733.16 603.35h-2v-23h2zm0-44.34h-2v-40.5h2z" stroke="#3a414a" stroke-width=".05" fill="#3a414a"/><path d="M737.16 518.53h-2v-1.03h2z" fill="#3a414a"/><path d="M737.2 518.55h-2.06v-1.07h2.05zm-2-1.02v.97h1.94v-.98z" stroke="#3a414a" stroke-width=".05" fill="#3a414a"/><path d="M733.16 518.53h-2v-1.03h2z" fill="#3a414a"/><path d="M733.2 518.55h-2.06v-1.07h2.05zm-2-1.02v.97h1.94v-.98z" stroke="#3a414a" stroke-width=".05" fill="#3a414a"/><path d="M734.16 618.6l-4.63-14.25h9.27z" fill="#3a414a"/><path d="M734.16 621.85l-6-18.5h12zm-3.26-16.5l3.26 10.03 3.26-10.03z" stroke="#3a414a" stroke-width=".05" fill="#3a414a"/><use xlink:href="#W" transform="matrix(1,0,0,1,676.5088598454327,559.0073966757103) translate(0 14.222222222222223)"/><use xlink:href="#X" transform="matrix(1,0,0,1,676.5088598454327,559.0073966757103) translate(47.25925925925926 14.222222222222223)"/><path d="M739.64 766.18h-2l.05-12.08h2zm.08-33.42h-2v-29.58h2zM735.64 766.18h-2l.04-12.08h2zm.08-33.42h-2v-29.58h2z" stroke="#3a414a" stroke-width=".05" fill="#3a414a"/><path d="M739.72 703.2h-2v-1.02h2z" fill="#3a414a"/><path d="M739.74 703.23h-2.05v-1.07h2.04zm-2-1.02v.98h1.95v-.97z" stroke="#3a414a" stroke-width=".05" fill="#3a414a"/><path d="M735.72 703.2h-2v-1.02h2z" fill="#3a414a"/><path d="M735.74 703.23h-2.05v-1.07h2.04zm-2-1.02v.98h1.95v-.97z" stroke="#3a414a" stroke-width=".05" fill="#3a414a"/><path d="M736.64 781.44L732 767.18h9.28z" fill="#3a414a"/><path d="M736.64 784.68l-6-18.5h12zm-3.26-16.5l3.26 10.03 3.26-10.02z" stroke="#3a414a" stroke-width=".05" fill="#3a414a"/><g><use xlink:href="#Y" transform="matrix(1,0,0,1,699.7177913297481,732.7629864473598) translate(0 14.222222222222223)"/></g><defs><path fill="#4c535d" d="M137 0h-34L2-248h35l83 218 83-218h36" id="Z"/><path fill="#4c535d" d="M100-194c63 0 86 42 84 106H49c0 40 14 67 53 68 26 1 43-12 49-29l28 8c-11 28-37 45-77 45C44 4 14-33 15-96c1-61 26-98 85-98zm52 81c6-60-76-77-97-28-3 7-6 17-6 28h103" id="aa"/><path fill="#4c535d" d="M117-194c89-4 53 116 60 194h-32v-121c0-31-8-49-39-48C34-167 62-67 57 0H25l-1-190h30c1 10-1 24 2 32 11-22 29-35 61-36" id="ab"/><path fill="#4c535d" d="M85-194c31 0 48 13 60 33l-1-100h32l1 261h-30c-2-10 0-23-3-31C134-8 116 4 85 4 32 4 16-35 15-94c0-66 23-100 70-100zm9 24c-40 0-46 34-46 75 0 40 6 74 45 74 42 0 51-32 51-76 0-42-9-74-50-73" id="ac"/><path fill="#4c535d" d="M100-194c62-1 85 37 85 99 1 63-27 99-86 99S16-35 15-95c0-66 28-99 85-99zM99-20c44 1 53-31 53-75 0-43-8-75-51-75s-53 32-53 75 10 74 51 75" id="ad"/><path fill="#4c535d" d="M114-163C36-179 61-72 57 0H25l-1-190h30c1 12-1 29 2 39 6-27 23-49 58-41v29" id="ae"/><g id="b"><use transform="matrix(0.049382716049382706,0,0,0.049382716049382706,0,0)" xlink:href="#Z"/><use transform="matrix(0.049382716049382706,0,0,0.049382716049382706,10.864197530864196,0)" xlink:href="#aa"/><use transform="matrix(0.049382716049382706,0,0,0.049382716049382706,20.740740740740737,0)" xlink:href="#ab"/><use transform="matrix(0.049382716049382706,0,0,0.049382716049382706,30.617283950617278,0)" xlink:href="#ac"/><use transform="matrix(0.049382716049382706,0,0,0.049382716049382706,40.49382716049382,0)" xlink:href="#ad"/><use transform="matrix(0.049382716049382706,0,0,0.049382716049382706,50.37037037037037,0)" xlink:href="#ae"/></g><path fill="#4c535d" d="M135-143c-3-34-86-38-87 0 15 53 115 12 119 90S17 21 10-45l28-5c4 36 97 45 98 0-10-56-113-15-118-90-4-57 82-63 122-42 12 7 21 19 24 35" id="af"/><path fill="#4c535d" d="M115-194c55 1 70 41 70 98S169 2 115 4C84 4 66-9 55-30l1 105H24l-1-265h31l2 30c10-21 28-34 59-34zm-8 174c40 0 45-34 45-75s-6-73-45-74c-42 0-51 32-51 76 0 43 10 73 51 73" id="ag"/><path fill="#4c535d" d="M96-169c-40 0-48 33-48 73s9 75 48 75c24 0 41-14 43-38l32 2c-6 37-31 61-74 61-59 0-76-41-82-99-10-93 101-131 147-64 4 7 5 14 7 22l-32 3c-4-21-16-35-41-35" id="ah"/><path fill="#4c535d" d="M24-231v-30h32v30H24zM24 0v-190h32V0H24" id="ai"/><path fill="#4c535d" d="M101-234c-31-9-42 10-38 44h38v23H63V0H32v-167H5v-23h27c-7-52 17-82 69-68v24" id="aj"/><g id="c"><use transform="matrix(0.049382716049382706,0,0,0.049382716049382706,0,0)" xlink:href="#af"/><use transform="matrix(0.049382716049382706,0,0,0.049382716049382706,8.888888888888888,0)" xlink:href="#ag"/><use transform="matrix(0.049382716049382706,0,0,0.049382716049382706,18.76543209876543,0)" xlink:href="#aa"/><use transform="matrix(0.049382716049382706,0,0,0.049382716049382706,28.64197530864197,0)" xlink:href="#ah"/><use transform="matrix(0.049382716049382706,0,0,0.049382716049382706,37.53086419753086,0)" xlink:href="#ai"/><use transform="matrix(0.049382716049382706,0,0,0.049382716049382706,41.432098765432094,0)" xlink:href="#aj"/><use transform="matrix(0.049382716049382706,0,0,0.049382716049382706,46.37037037037037,0)" xlink:href="#ai"/><use transform="matrix(0.049382716049382706,0,0,0.049382716049382706,50.2716049382716,0)" xlink:href="#ah"/></g><path fill="#4c535d" d="M141-36C126-15 110 5 73 4 37 3 15-17 15-53c-1-64 63-63 125-63 3-35-9-54-41-54-24 1-41 7-42 31l-33-3c5-37 33-52 76-52 45 0 72 20 72 64v82c-1 20 7 32 28 27v20c-31 9-61-2-59-35zM48-53c0 20 12 33 32 33 41-3 63-29 60-74-43 2-92-5-92 41" id="ak"/><path fill="#4c535d" d="M59-47c-2 24 18 29 38 22v24C64 9 27 4 27-40v-127H5v-23h24l9-43h21v43h35v23H59v120" id="al"/><g id="d"><use transform="matrix(0.049382716049382706,0,0,0.049382716049382706,0,0)" xlink:href="#ak"/><use transform="matrix(0.049382716049382706,0,0,0.049382716049382706,9.87654320987654,0)" xlink:href="#ae"/><use transform="matrix(0.049382716049382706,0,0,0.049382716049382706,15.75308641975308,0)" xlink:href="#al"/><use transform="matrix(0.049382716049382706,0,0,0.049382716049382706,20.691358024691354,0)" xlink:href="#ai"/><use transform="matrix(0.049382716049382706,0,0,0.049382716049382706,24.592592592592588,0)" xlink:href="#aj"/><use transform="matrix(0.049382716049382706,0,0,0.049382716049382706,29.530864197530857,0)" xlink:href="#ak"/><use transform="matrix(0.049382716049382706,0,0,0.049382716049382706,39.407407407407405,0)" xlink:href="#ah"/><use transform="matrix(0.049382716049382706,0,0,0.049382716049382706,48.29629629629629,0)" xlink:href="#al"/><use transform="matrix(0.049382716049382706,0,0,0.049382716049382706,53.234567901234556,0)" xlink:href="#af"/></g><filter id="a" filterUnits="objectBoundingBox" x="-.03" y="-.03" width="1.05" height="1.14"><feOffset result="offOut" in="SourceAlpha" dy="6"/><feGaussianBlur result="blurOut" in="offOut" stdDeviation="5"/><feColorMatrix result="colorOut" in="blurOut" values="0 0 0 0 0 0 0 0 0 0 0 0 0 0 0 0 0 0 0.5019607843137255 0"/><feBlend in="SourceGraphic" in2="colorOut"/></filter><path fill="#4c535d" d="M24 0v-248h195v40H76v63h132v40H76v65h150V0H24" id="am"/><path fill="#4c535d" d="M135-194c87-1 58 113 63 194h-50c-7-57 23-157-34-157-59 0-34 97-39 157H25l-1-190h47c2 12-1 28 3 38 12-26 28-41 61-42" id="an"/><path fill="#4c535d" d="M115-3C79 11 28 4 28-45v-112H4v-33h27l15-45h31v45h36v33H77v99c-1 23 16 31 38 25v30" id="ao"/><path fill="#4c535d" d="M185-48c-13 30-37 53-82 52C43 2 14-33 14-96s30-98 90-98c62 0 83 45 84 108H66c0 31 8 55 39 56 18 0 30-7 34-22zm-45-69c5-46-57-63-70-21-2 6-4 13-4 21h74" id="ap"/><path fill="#4c535d" d="M135-150c-39-12-60 13-60 57V0H25l-1-190h47c2 13-1 29 3 40 6-28 27-53 61-41v41" id="aq"/><path fill="#4c535d" d="M135-194c53 0 70 44 70 98 0 56-19 98-73 100-31 1-45-17-59-34 3 33 2 69 2 105H25l-1-265h48c2 10 0 23 3 31 11-24 29-35 60-35zM114-30c33 0 39-31 40-66 0-38-9-64-40-64-56 0-55 130 0 130" id="ar"/><path fill="#4c535d" d="M25-224v-37h50v37H25zM25 0v-190h50V0H25" id="as"/><path fill="#4c535d" d="M137-138c1-29-70-34-71-4 15 46 118 7 119 86 1 83-164 76-172 9l43-7c4 19 20 25 44 25 33 8 57-30 24-41C81-84 22-81 20-136c-2-80 154-74 161-7" id="at"/><g id="f"><use transform="matrix(0.049382716049382706,0,0,0.049382716049382706,0,0)" xlink:href="#am"/><use transform="matrix(0.049382716049382706,0,0,0.049382716049382706,11.85185185185185,0)" xlink:href="#an"/><use transform="matrix(0.049382716049382706,0,0,0.049382716049382706,22.666666666666664,0)" xlink:href="#ao"/><use transform="matrix(0.049382716049382706,0,0,0.049382716049382706,28.543209876543205,0)" xlink:href="#ap"/><use transform="matrix(0.049382716049382706,0,0,0.049382716049382706,38.419753086419746,0)" xlink:href="#aq"/><use transform="matrix(0.049382716049382706,0,0,0.049382716049382706,45.33333333333333,0)" xlink:href="#ar"/><use transform="matrix(0.049382716049382706,0,0,0.049382716049382706,56.14814814814814,0)" xlink:href="#aq"/><use transform="matrix(0.049382716049382706,0,0,0.049382716049382706,63.061728395061714,0)" xlink:href="#as"/><use transform="matrix(0.049382716049382706,0,0,0.049382716049382706,67.99999999999999,0)" xlink:href="#at"/><use transform="matrix(0.049382716049382706,0,0,0.049382716049382706,77.87654320987653,0)" xlink:href="#ap"/></g><path fill="#4c535d" d="M133-34C117-15 103 5 69 4 32 3 11-16 11-54c-1-60 55-63 116-61 1-26-3-47-28-47-18 1-26 9-28 27l-52-2c7-38 36-58 82-57s74 22 75 68l1 82c-1 14 12 18 25 15v27c-30 8-71 5-69-32zm-48 3c29 0 43-24 42-57-32 0-66-3-65 30 0 17 8 27 23 27" id="au"/><path fill="#4c535d" d="M121-226c-27-7-43 5-38 36h38v33H83V0H34v-157H6v-33h28c-9-59 32-81 87-68v32" id="av"/><path fill="#4c535d" d="M190-63c-7 42-38 67-86 67-59 0-84-38-90-98-12-110 154-137 174-36l-49 2c-2-19-15-32-35-32-30 0-35 28-38 64-6 74 65 87 74 30" id="aw"/><g id="g"><use transform="matrix(0.049382716049382706,0,0,0.049382716049382706,0,0)" xlink:href="#au"/><use transform="matrix(0.049382716049382706,0,0,0.049382716049382706,9.87654320987654,0)" xlink:href="#aq"/><use transform="matrix(0.049382716049382706,0,0,0.049382716049382706,16.79012345679012,0)" xlink:href="#ao"/><use transform="matrix(0.049382716049382706,0,0,0.049382716049382706,22.66666666666666,0)" xlink:href="#as"/><use transform="matrix(0.049382716049382706,0,0,0.049382716049382706,27.604938271604926,0)" xlink:href="#av"/><use transform="matrix(0.049382716049382706,0,0,0.049382716049382706,33.481481481481474,0)" xlink:href="#au"/><use transform="matrix(0.049382716049382706,0,0,0.049382716049382706,43.35802469135801,0)" xlink:href="#aw"/><use transform="matrix(0.049382716049382706,0,0,0.049382716049382706,53.234567901234556,0)" xlink:href="#ao"/><use transform="matrix(0.049382716049382706,0,0,0.049382716049382706,59.1111111111111,0)" xlink:href="#at"/></g><filter id="e" filterUnits="objectBoundingBox" x="-.01" y="-.01" width="1.02" height="1.03"><feOffset result="offOut" in="SourceAlpha" dy="6"/><feGaussianBlur result="blurOut" in="offOut" stdDeviation="5"/><feColorMatrix result="colorOut" in="blurOut" values="0 0 0 0 0 0 0 0 0 0 0 0 0 0 0 0 0 0 0.5019607843137255 0"/><feBlend in="SourceGraphic" in2="colorOut"/></filter><path fill="#4c535d" d="M140-251c80 0 125 45 125 126S219 4 139 4C58 4 15-44 15-125s44-126 125-126zm-1 214c52 0 73-35 73-88 0-50-21-86-72-86-52 0-73 35-73 86s22 88 72 88" id="ax"/><path fill="#4c535d" d="M136-208V0H84v-208H4v-40h212v40h-80" id="ay"/><path fill="#4c535d" d="M25 0v-261h50V0H25" id="az"/><path fill="#4c535d" d="M220-157c-53 9-28 100-34 157h-49v-107c1-27-5-49-29-50C55-147 81-57 75 0H25l-1-190h47c2 12-1 28 3 38 10-53 101-56 108 0 13-22 24-43 59-42 82 1 51 116 57 194h-49v-107c-1-25-5-48-29-50" id="aA"/><path fill="#4c535d" d="M123 10C108 53 80 86 19 72V37c35 8 53-11 59-39L3-190h52l48 148c12-52 28-100 44-148h51" id="aB"/><g id="i"><use transform="matrix(0.049382716049382706,0,0,0.049382716049382706,0,0)" xlink:href="#ax"/><use transform="matrix(0.049382716049382706,0,0,0.049382716049382706,13.827160493827158,0)" xlink:href="#ar"/><use transform="matrix(0.049382716049382706,0,0,0.049382716049382706,24.64197530864197,0)" xlink:href="#ap"/><use transform="matrix(0.049382716049382706,0,0,0.049382716049382706,34.51851851851851,0)" xlink:href="#an"/><use transform="matrix(0.049382716049382706,0,0,0.049382716049382706,45.33333333333333,0)" xlink:href="#ay"/><use transform="matrix(0.049382716049382706,0,0,0.049382716049382706,54.8148148148148,0)" xlink:href="#ap"/><use transform="matrix(0.049382716049382706,0,0,0.049382716049382706,64.69135802469135,0)" xlink:href="#az"/><use transform="matrix(0.049382716049382706,0,0,0.049382716049382706,69.62962962962962,0)" xlink:href="#ap"/><use transform="matrix(0.049382716049382706,0,0,0.049382716049382706,79.50617283950616,0)" xlink:href="#aA"/><use transform="matrix(0.049382716049382706,0,0,0.049382716049382706,95.30864197530863,0)" xlink:href="#ap"/><use transform="matrix(0.049382716049382706,0,0,0.049382716049382706,105.18518518518519,0)" xlink:href="#ao"/><use transform="matrix(0.049382716049382706,0,0,0.049382716049382706,111.06172839506173,0)" xlink:href="#aq"/><use transform="matrix(0.049382716049382706,0,0,0.049382716049382706,117.9753086419753,0)" xlink:href="#aB"/></g><filter id="h" filterUnits="objectBoundingBox" x="-.02" y="-.03" width="1.04" height="1.13"><feOffset result="offOut" in="SourceAlpha" dy="6"/><feGaussianBlur result="blurOut" in="offOut" stdDeviation="5"/><feColorMatrix result="colorOut" in="blurOut" values="0 0 0 0 0 0 0 0 0 0 0 0 0 0 0 0 0 0 0.5019607843137255 0"/><feBlend in="SourceGraphic" in2="colorOut"/></filter><path fill="#fff" d="M240-174c0 40-23 61-54 70L253 0h-59l-57-94H76V0H24v-248c93 4 217-23 216 74zM76-134c48-2 112 12 112-38 0-48-66-32-112-35v73" id="aC"/><path fill="#fff" d="M185-48c-13 30-37 53-82 52C43 2 14-33 14-96s30-98 90-98c62 0 83 45 84 108H66c0 31 8 55 39 56 18 0 30-7 34-22zm-45-69c5-46-57-63-70-21-2 6-4 13-4 21h74" id="aD"/><path fill="#fff" d="M137-138c1-29-70-34-71-4 15 46 118 7 119 86 1 83-164 76-172 9l43-7c4 19 20 25 44 25 33 8 57-30 24-41C81-84 22-81 20-136c-2-80 154-74 161-7" id="aE"/><path fill="#fff" d="M110-194c64 0 96 36 96 99 0 64-35 99-97 99-61 0-95-36-95-99 0-62 34-99 96-99zm-1 164c35 0 45-28 45-65 0-40-10-65-43-65-34 0-45 26-45 65 0 36 10 65 43 65" id="aF"/><path fill="#fff" d="M25 0v-261h50V0H25" id="aG"/><path fill="#fff" d="M128 0H69L1-190h53L99-40l48-150h52" id="aH"/><path fill="#fff" d="M88-194c31-1 46 15 58 34l-1-101h50l1 261h-48c-2-10 0-23-3-31C134-8 116 4 84 4 32 4 16-41 15-95c0-56 19-97 73-99zm17 164c33 0 40-30 41-66 1-37-9-64-41-64s-38 30-39 65c0 43 13 65 39 65" id="aI"/><g id="k"><use transform="matrix(0.06172839506172839,0,0,0.06172839506172839,0,0)" xlink:href="#aC"/><use transform="matrix(0.06172839506172839,0,0,0.06172839506172839,15.987654320987653,0)" xlink:href="#aD"/><use transform="matrix(0.06172839506172839,0,0,0.06172839506172839,28.333333333333332,0)" xlink:href="#aE"/><use transform="matrix(0.06172839506172839,0,0,0.06172839506172839,40.67901234567901,0)" xlink:href="#aF"/><use transform="matrix(0.06172839506172839,0,0,0.06172839506172839,54.19753086419753,0)" xlink:href="#aG"/><use transform="matrix(0.06172839506172839,0,0,0.06172839506172839,60.370370370370374,0)" xlink:href="#aH"/><use transform="matrix(0.06172839506172839,0,0,0.06172839506172839,72.71604938271605,0)" xlink:href="#aD"/><use transform="matrix(0.06172839506172839,0,0,0.06172839506172839,85.06172839506173,0)" xlink:href="#aI"/></g><path fill="#fff" d="M136-208V0H84v-208H4v-40h212v40h-80" id="aJ"/><path fill="#fff" d="M220-157c-53 9-28 100-34 157h-49v-107c1-27-5-49-29-50C55-147 81-57 75 0H25l-1-190h47c2 12-1 28 3 38 10-53 101-56 108 0 13-22 24-43 59-42 82 1 51 116 57 194h-49v-107c-1-25-5-48-29-50" id="aK"/><path fill="#fff" d="M115-3C79 11 28 4 28-45v-112H4v-33h27l15-45h31v45h36v33H77v99c-1 23 16 31 38 25v30" id="aL"/><path fill="#fff" d="M135-150c-39-12-60 13-60 57V0H25l-1-190h47c2 13-1 29 3 40 6-28 27-53 61-41v41" id="aM"/><path fill="#fff" d="M123 10C108 53 80 86 19 72V37c35 8 53-11 59-39L3-190h52l48 148c12-52 28-100 44-148h51" id="aN"/><g id="l"><use transform="matrix(0.06172839506172839,0,0,0.06172839506172839,0,0)" xlink:href="#aJ"/><use transform="matrix(0.06172839506172839,0,0,0.06172839506172839,11.851851851851851,0)" xlink:href="#aD"/><use transform="matrix(0.06172839506172839,0,0,0.06172839506172839,24.19753086419753,0)" xlink:href="#aG"/><use transform="matrix(0.06172839506172839,0,0,0.06172839506172839,30.37037037037037,0)" xlink:href="#aD"/><use transform="matrix(0.06172839506172839,0,0,0.06172839506172839,42.71604938271605,0)" xlink:href="#aK"/><use transform="matrix(0.06172839506172839,0,0,0.06172839506172839,62.46913580246914,0)" xlink:href="#aD"/><use transform="matrix(0.06172839506172839,0,0,0.06172839506172839,74.81481481481482,0)" xlink:href="#aL"/><use transform="matrix(0.06172839506172839,0,0,0.06172839506172839,82.16049382716051,0)" xlink:href="#aM"/><use transform="matrix(0.06172839506172839,0,0,0.06172839506172839,90.80246913580248,0)" xlink:href="#aN"/></g><path fill="#fff" d="M169-182c-1-43-94-46-97-3 18 66 151 10 154 114 3 95-165 93-204 36-6-8-10-19-12-30l50-8c3 46 112 56 116 5-17-69-150-10-154-114-4-87 153-88 188-35 5 8 8 18 10 28" id="aO"/><path fill="#fff" d="M190-63c-7 42-38 67-86 67-59 0-84-38-90-98-12-110 154-137 174-36l-49 2c-2-19-15-32-35-32-30 0-35 28-38 64-6 74 65 87 74 30" id="aP"/><path fill="#fff" d="M114-157C55-157 80-60 75 0H25v-261h50l-1 109c12-26 28-41 61-42 86-1 58 113 63 194h-50c-7-57 23-157-34-157" id="aQ"/><path fill="#fff" d="M133-34C117-15 103 5 69 4 32 3 11-16 11-54c-1-60 55-63 116-61 1-26-3-47-28-47-18 1-26 9-28 27l-52-2c7-38 36-58 82-57s74 22 75 68l1 82c-1 14 12 18 25 15v27c-30 8-71 5-69-32zm-48 3c29 0 43-24 42-57-32 0-66-3-65 30 0 17 8 27 23 27" id="aR"/><g id="m"><use transform="matrix(0.06172839506172839,0,0,0.06172839506172839,0,0)" xlink:href="#aO"/><use transform="matrix(0.06172839506172839,0,0,0.06172839506172839,14.814814814814813,0)" xlink:href="#aP"/><use transform="matrix(0.06172839506172839,0,0,0.06172839506172839,27.160493827160494,0)" xlink:href="#aQ"/><use transform="matrix(0.06172839506172839,0,0,0.06172839506172839,40.67901234567901,0)" xlink:href="#aD"/><use transform="matrix(0.06172839506172839,0,0,0.06172839506172839,53.02469135802469,0)" xlink:href="#aK"/><use transform="matrix(0.06172839506172839,0,0,0.06172839506172839,72.77777777777777,0)" xlink:href="#aR"/></g><path fill="#fff" d="M87 75C49 33 22-17 22-94c0-76 28-126 65-167h31c-38 41-64 92-64 168S80 34 118 75H87" id="aS"/><path fill="#fff" d="M96-169c-40 0-48 33-48 73s9 75 48 75c24 0 41-14 43-38l32 2c-6 37-31 61-74 61-59 0-76-41-82-99-10-93 101-131 147-64 4 7 5 14 7 22l-32 3c-4-21-16-35-41-35" id="aT"/><path fill="#fff" d="M100-194c62-1 85 37 85 99 1 63-27 99-86 99S16-35 15-95c0-66 28-99 85-99zM99-20c44 1 53-31 53-75 0-43-8-75-51-75s-53 32-53 75 10 74 51 75" id="aU"/><path fill="#fff" d="M117-194c89-4 53 116 60 194h-32v-121c0-31-8-49-39-48C34-167 62-67 57 0H25l-1-190h30c1 10-1 24 2 32 11-22 29-35 61-36" id="aV"/><path fill="#fff" d="M59-47c-2 24 18 29 38 22v24C64 9 27 4 27-40v-127H5v-23h24l9-43h21v43h35v23H59v120" id="aW"/><path fill="#fff" d="M141-36C126-15 110 5 73 4 37 3 15-17 15-53c-1-64 63-63 125-63 3-35-9-54-41-54-24 1-41 7-42 31l-33-3c5-37 33-52 76-52 45 0 72 20 72 64v82c-1 20 7 32 28 27v20c-31 9-61-2-59-35zM48-53c0 20 12 33 32 33 41-3 63-29 60-74-43 2-92-5-92 41" id="aX"/><path fill="#fff" d="M24-231v-30h32v30H24zM24 0v-190h32V0H24" id="aY"/><path fill="#fff" d="M135-143c-3-34-86-38-87 0 15 53 115 12 119 90S17 21 10-45l28-5c4 36 97 45 98 0-10-56-113-15-118-90-4-57 82-63 122-42 12 7 21 19 24 35" id="aZ"/><g id="n"><use transform="matrix(0.049382716049382706,0,0,0.049382716049382706,0,0)" xlink:href="#aS"/><use transform="matrix(0.049382716049382706,0,0,0.049382716049382706,5.876543209876542,0)" xlink:href="#aT"/><use transform="matrix(0.049382716049382706,0,0,0.049382716049382706,14.765432098765428,0)" xlink:href="#aU"/><use transform="matrix(0.049382716049382706,0,0,0.049382716049382706,24.64197530864197,0)" xlink:href="#aV"/><use transform="matrix(0.049382716049382706,0,0,0.049382716049382706,34.51851851851851,0)" xlink:href="#aW"/><use transform="matrix(0.049382716049382706,0,0,0.049382716049382706,39.456790123456784,0)" xlink:href="#aX"/><use transform="matrix(0.049382716049382706,0,0,0.049382716049382706,49.33333333333333,0)" xlink:href="#aY"/><use transform="matrix(0.049382716049382706,0,0,0.049382716049382706,53.234567901234556,0)" xlink:href="#aV"/><use transform="matrix(0.049382716049382706,0,0,0.049382716049382706,63.1111111111111,0)" xlink:href="#aZ"/></g><path fill="#fff" d="M101-234c-31-9-42 10-38 44h38v23H63V0H32v-167H5v-23h27c-7-52 17-82 69-68v24" id="ba"/><path fill="#fff" d="M24 0v-261h32V0H24" id="bb"/><g id="o"><use transform="matrix(0.049382716049382706,0,0,0.049382716049382706,0,0)" xlink:href="#aU"/><use transform="matrix(0.049382716049382706,0,0,0.049382716049382706,9.87654320987654,0)" xlink:href="#ba"/><use transform="matrix(0.049382716049382706,0,0,0.049382716049382706,14.469135802469133,0)" xlink:href="#ba"/><use transform="matrix(0.049382716049382706,0,0,0.049382716049382706,19.407407407407405,0)" xlink:href="#aY"/><use transform="matrix(0.049382716049382706,0,0,0.049382716049382706,23.30864197530864,0)" xlink:href="#aT"/><use transform="matrix(0.049382716049382706,0,0,0.049382716049382706,32.197530864197525,0)" xlink:href="#aY"/><use transform="matrix(0.049382716049382706,0,0,0.049382716049382706,36.09876543209876,0)" xlink:href="#aX"/><use transform="matrix(0.049382716049382706,0,0,0.049382716049382706,45.9753086419753,0)" xlink:href="#bb"/></g><path fill="#fff" d="M100-194c63 0 86 42 84 106H49c0 40 14 67 53 68 26 1 43-12 49-29l28 8c-11 28-37 45-77 45C44 4 14-33 15-96c1-61 26-98 85-98zm52 81c6-60-76-77-97-28-3 7-6 17-6 28h103" id="bc"/><path fill="#fff" d="M210-169c-67 3-38 105-44 169h-31v-121c0-29-5-50-35-48C34-165 62-65 56 0H25l-1-190h30c1 10-1 24 2 32 10-44 99-50 107 0 11-21 27-35 58-36 85-2 47 119 55 194h-31v-121c0-29-5-49-35-48" id="bd"/><g id="p"><use transform="matrix(0.049382716049382706,0,0,0.049382716049382706,0,0)" xlink:href="#aZ"/><use transform="matrix(0.049382716049382706,0,0,0.049382716049382706,8.888888888888888,0)" xlink:href="#bc"/><use transform="matrix(0.049382716049382706,0,0,0.049382716049382706,18.76543209876543,0)" xlink:href="#bd"/><use transform="matrix(0.049382716049382706,0,0,0.049382716049382706,33.53086419753086,0)" xlink:href="#aX"/><use transform="matrix(0.049382716049382706,0,0,0.049382716049382706,43.407407407407405,0)" xlink:href="#aV"/><use transform="matrix(0.049382716049382706,0,0,0.049382716049382706,53.28395061728395,0)" xlink:href="#aW"/><use transform="matrix(0.049382716049382706,0,0,0.049382716049382706,58.22222222222222,0)" xlink:href="#aY"/><use transform="matrix(0.049382716049382706,0,0,0.049382716049382706,62.123456790123456,0)" xlink:href="#aT"/></g><path fill="#fff" d="M108 0H70L1-190h34L89-25l56-165h34" id="be"/><path fill="#fff" d="M33-261c38 41 65 92 65 168S71 34 33 75H2C39 34 66-17 66-93S39-220 2-261h31" id="bf"/><g id="q"><use transform="matrix(0.049382716049382706,0,0,0.049382716049382706,0,0)" xlink:href="#aT"/><use transform="matrix(0.049382716049382706,0,0,0.049382716049382706,8.888888888888888,0)" xlink:href="#aU"/><use transform="matrix(0.049382716049382706,0,0,0.049382716049382706,18.76543209876543,0)" xlink:href="#aV"/><use transform="matrix(0.049382716049382706,0,0,0.049382716049382706,28.64197530864197,0)" xlink:href="#be"/><use transform="matrix(0.049382716049382706,0,0,0.049382716049382706,37.53086419753086,0)" xlink:href="#bc"/><use transform="matrix(0.049382716049382706,0,0,0.049382716049382706,47.407407407407405,0)" xlink:href="#aV"/><use transform="matrix(0.049382716049382706,0,0,0.049382716049382706,57.28395061728395,0)" xlink:href="#aW"/><use transform="matrix(0.049382716049382706,0,0,0.049382716049382706,62.22222222222222,0)" xlink:href="#aY"/><use transform="matrix(0.049382716049382706,0,0,0.049382716049382706,66.12345679012346,0)" xlink:href="#aU"/><use transform="matrix(0.049382716049382706,0,0,0.049382716049382706,76,0)" xlink:href="#aV"/><use transform="matrix(0.049382716049382706,0,0,0.049382716049382706,85.87654320987654,0)" xlink:href="#aZ"/><use transform="matrix(0.049382716049382706,0,0,0.049382716049382706,94.76543209876543,0)" xlink:href="#bf"/></g><filter id="j" filterUnits="objectBoundingBox" x="-.03" y="-.05" width="1.05" height="1.26"><feOffset result="offOut" in="SourceAlpha" dy="6"/><feGaussianBlur result="blurOut" in="offOut" stdDeviation="5"/><feColorMatrix result="colorOut" in="blurOut" values="0 0 0 0 0 0 0 0 0 0 0 0 0 0 0 0 0 0 0.5019607843137255 0"/><feBlend in="SourceGraphic" in2="colorOut"/></filter><path fill="#fff" d="M67-125c0 53 21 87 73 88 37 1 54-22 65-47l45 17C233-25 199 4 140 4 58 4 20-42 15-125 8-235 124-281 211-232c18 10 29 29 36 50l-46 12c-8-25-30-41-62-41-52 0-71 34-72 86" id="bg"/><path fill="#fff" d="M135-194c53 0 70 44 70 98 0 56-19 98-73 100-31 1-45-17-59-34 3 33 2 69 2 105H25l-1-265h48c2 10 0 23 3 31 11-24 29-35 60-35zM114-30c33 0 39-31 40-66 0-38-9-64-40-64-56 0-55 130 0 130" id="bh"/><path fill="#fff" d="M135-194c87-1 58 113 63 194h-50c-7-57 23-157-34-157-59 0-34 97-39 157H25l-1-190h47c2 12-1 28 3 38 12-26 28-41 61-42" id="bi"/><g id="s"><use transform="matrix(0.06172839506172839,0,0,0.06172839506172839,0,0)" xlink:href="#bg"/><use transform="matrix(0.06172839506172839,0,0,0.06172839506172839,15.987654320987653,0)" xlink:href="#aF"/><use transform="matrix(0.06172839506172839,0,0,0.06172839506172839,29.50617283950617,0)" xlink:href="#aK"/><use transform="matrix(0.06172839506172839,0,0,0.06172839506172839,49.25925925925925,0)" xlink:href="#bh"/><use transform="matrix(0.06172839506172839,0,0,0.06172839506172839,62.77777777777777,0)" xlink:href="#aF"/><use transform="matrix(0.06172839506172839,0,0,0.06172839506172839,76.29629629629629,0)" xlink:href="#bi"/><use transform="matrix(0.06172839506172839,0,0,0.06172839506172839,89.81481481481481,0)" xlink:href="#aD"/><use transform="matrix(0.06172839506172839,0,0,0.06172839506172839,102.1604938271605,0)" xlink:href="#bi"/><use transform="matrix(0.06172839506172839,0,0,0.06172839506172839,115.67901234567901,0)" xlink:href="#aL"/></g><path fill="#fff" d="M115-194c55 1 70 41 70 98S169 2 115 4C84 4 66-9 55-30l1 105H24l-1-265h31l2 30c10-21 28-34 59-34zm-8 174c40 0 45-34 45-75s-6-73-45-74c-42 0-51 32-51 76 0 43 10 73 51 73" id="bj"/><path fill="#fff" d="M16-82v-28h88v28H16" id="bk"/><g id="t"><use transform="matrix(0.049382716049382706,0,0,0.049382716049382706,0,0)" xlink:href="#aX"/><use transform="matrix(0.049382716049382706,0,0,0.049382716049382706,9.87654320987654,0)" xlink:href="#bj"/><use transform="matrix(0.049382716049382706,0,0,0.049382716049382706,19.75308641975308,0)" xlink:href="#bj"/><use transform="matrix(0.049382716049382706,0,0,0.049382716049382706,29.629629629629623,0)" xlink:href="#bb"/><use transform="matrix(0.049382716049382706,0,0,0.049382716049382706,33.53086419753085,0)" xlink:href="#aY"/><use transform="matrix(0.049382716049382706,0,0,0.049382716049382706,37.43209876543209,0)" xlink:href="#aT"/><use transform="matrix(0.049382716049382706,0,0,0.049382716049382706,46.32098765432097,0)" xlink:href="#aX"/><use transform="matrix(0.049382716049382706,0,0,0.049382716049382706,56.19753086419752,0)" xlink:href="#aW"/><use transform="matrix(0.049382716049382706,0,0,0.049382716049382706,61.13580246913579,0)" xlink:href="#aY"/><use transform="matrix(0.049382716049382706,0,0,0.049382716049382706,65.03703703703702,0)" xlink:href="#aU"/><use transform="matrix(0.049382716049382706,0,0,0.049382716049382706,74.91358024691357,0)" xlink:href="#aV"/><use transform="matrix(0.049382716049382706,0,0,0.049382716049382706,84.79012345679011,0)" xlink:href="#bk"/><use transform="matrix(0.049382716049382706,0,0,0.049382716049382706,90.66666666666666,0)" xlink:href="#bb"/><use transform="matrix(0.049382716049382706,0,0,0.049382716049382706,94.56790123456788,0)" xlink:href="#bc"/><use transform="matrix(0.049382716049382706,0,0,0.049382716049382706,104.44444444444443,0)" xlink:href="#be"/><use transform="matrix(0.049382716049382706,0,0,0.049382716049382706,113.33333333333331,0)" xlink:href="#bc"/><use transform="matrix(0.049382716049382706,0,0,0.049382716049382706,123.20987654320986,0)" xlink:href="#bb"/></g><path fill="#fff" d="M85-194c31 0 48 13 60 33l-1-100h32l1 261h-30c-2-10 0-23-3-31C134-8 116 4 85 4 32 4 16-35 15-94c0-66 23-100 70-100zm9 24c-40 0-46 34-46 75 0 40 6 74 45 74 42 0 51-32 51-76 0-42-9-74-50-73" id="bl"/><g id="u"><use transform="matrix(0.049382716049382706,0,0,0.049382716049382706,0,0)" xlink:href="#bl"/><use transform="matrix(0.049382716049382706,0,0,0.049382716049382706,9.87654320987654,0)" xlink:href="#bc"/><use transform="matrix(0.049382716049382706,0,0,0.049382716049382706,19.75308641975308,0)" xlink:href="#ba"/><use transform="matrix(0.049382716049382706,0,0,0.049382716049382706,24.691358024691354,0)" xlink:href="#aY"/><use transform="matrix(0.049382716049382706,0,0,0.049382716049382706,28.592592592592588,0)" xlink:href="#aV"/><use transform="matrix(0.049382716049382706,0,0,0.049382716049382706,38.469135802469125,0)" xlink:href="#aY"/><use transform="matrix(0.049382716049382706,0,0,0.049382716049382706,42.37037037037036,0)" xlink:href="#aW"/><use transform="matrix(0.049382716049382706,0,0,0.049382716049382706,47.30864197530863,0)" xlink:href="#aY"/><use transform="matrix(0.049382716049382706,0,0,0.049382716049382706,51.209876543209866,0)" xlink:href="#aU"/><use transform="matrix(0.049382716049382706,0,0,0.049382716049382706,61.08641975308641,0)" xlink:href="#aV"/><use transform="matrix(0.049382716049382706,0,0,0.049382716049382706,70.96296296296295,0)" xlink:href="#aZ"/><use transform="matrix(0.049382716049382706,0,0,0.049382716049382706,79.85185185185183,0)" xlink:href="#bf"/></g><filter id="r" filterUnits="objectBoundingBox" x="-.03" y="-.05" width="1.05" height="1.26"><feOffset result="offOut" in="SourceAlpha" dy="6"/><feGaussianBlur result="blurOut" in="offOut" stdDeviation="5"/><feColorMatrix result="colorOut" in="blurOut" values="0 0 0 0 0 0 0 0 0 0 0 0 0 0 0 0 0 0 0.5019607843137255 0"/><feBlend in="SourceGraphic" in2="colorOut"/></filter><g id="w"><use transform="matrix(0.06172839506172839,0,0,0.06172839506172839,0,0)" xlink:href="#aO"/><use transform="matrix(0.06172839506172839,0,0,0.06172839506172839,14.814814814814813,0)" xlink:href="#aP"/><use transform="matrix(0.06172839506172839,0,0,0.06172839506172839,27.160493827160494,0)" xlink:href="#aQ"/><use transform="matrix(0.06172839506172839,0,0,0.06172839506172839,40.67901234567901,0)" xlink:href="#aD"/><use transform="matrix(0.06172839506172839,0,0,0.06172839506172839,53.02469135802469,0)" xlink:href="#aK"/><use transform="matrix(0.06172839506172839,0,0,0.06172839506172839,72.77777777777777,0)" xlink:href="#aR"/></g><g id="x"><use transform="matrix(0.049382716049382706,0,0,0.049382716049382706,0,0)" xlink:href="#aS"/><use transform="matrix(0.049382716049382706,0,0,0.049382716049382706,5.876543209876542,0)" xlink:href="#aT"/><use transform="matrix(0.049382716049382706,0,0,0.049382716049382706,14.765432098765428,0)" xlink:href="#aU"/><use transform="matrix(0.049382716049382706,0,0,0.049382716049382706,24.64197530864197,0)" xlink:href="#aV"/><use transform="matrix(0.049382716049382706,0,0,0.049382716049382706,34.51851851851851,0)" xlink:href="#aW"/><use transform="matrix(0.049382716049382706,0,0,0.049382716049382706,39.456790123456784,0)" xlink:href="#aX"/><use transform="matrix(0.049382716049382706,0,0,0.049382716049382706,49.33333333333333,0)" xlink:href="#aY"/><use transform="matrix(0.049382716049382706,0,0,0.049382716049382706,53.234567901234556,0)" xlink:href="#aV"/><use transform="matrix(0.049382716049382706,0,0,0.049382716049382706,63.1111111111111,0)" xlink:href="#aZ"/></g><path fill="#fff" d="M114-163C36-179 61-72 57 0H25l-1-190h30c1 12-1 29 2 39 6-27 23-49 58-41v29" id="bm"/><g id="y"><use transform="matrix(0.049382716049382706,0,0,0.049382716049382706,0,0)" xlink:href="#bc"/><use transform="matrix(0.049382716049382706,0,0,0.049382716049382706,9.87654320987654,0)" xlink:href="#aV"/><use transform="matrix(0.049382716049382706,0,0,0.049382716049382706,19.75308641975308,0)" xlink:href="#aW"/><use transform="matrix(0.049382716049382706,0,0,0.049382716049382706,24.691358024691354,0)" xlink:href="#bc"/><use transform="matrix(0.049382716049382706,0,0,0.049382716049382706,34.5679012345679,0)" xlink:href="#bm"/><use transform="matrix(0.049382716049382706,0,0,0.049382716049382706,40.44444444444444,0)" xlink:href="#bj"/><use transform="matrix(0.049382716049382706,0,0,0.049382716049382706,50.32098765432099,0)" xlink:href="#bm"/><use transform="matrix(0.049382716049382706,0,0,0.049382716049382706,56.19753086419753,0)" xlink:href="#aY"/><use transform="matrix(0.049382716049382706,0,0,0.049382716049382706,60.098765432098766,0)" xlink:href="#aZ"/><use transform="matrix(0.049382716049382706,0,0,0.049382716049382706,68.98765432098766,0)" xlink:href="#bc"/><use transform="matrix(0.049382716049382706,0,0,0.049382716049382706,78.8641975308642,0)" xlink:href="#bk"/><use transform="matrix(0.049382716049382706,0,0,0.049382716049382706,84.74074074074075,0)" xlink:href="#bb"/><use transform="matrix(0.049382716049382706,0,0,0.049382716049382706,88.64197530864197,0)" xlink:href="#bc"/><use transform="matrix(0.049382716049382706,0,0,0.049382716049382706,98.51851851851852,0)" xlink:href="#be"/><use transform="matrix(0.049382716049382706,0,0,0.049382716049382706,107.4074074074074,0)" xlink:href="#bc"/><use transform="matrix(0.049382716049382706,0,0,0.049382716049382706,117.28395061728395,0)" xlink:href="#bb"/></g><filter id="v" filterUnits="objectBoundingBox" x="-.03" y="-.05" width="1.05" height="1.26"><feOffset result="offOut" in="SourceAlpha" dy="6"/><feGaussianBlur result="blurOut" in="offOut" stdDeviation="5"/><feColorMatrix result="colorOut" in="blurOut" values="0 0 0 0 0 0 0 0 0 0 0 0 0 0 0 0 0 0 0.5019607843137255 0"/><feBlend in="SourceGraphic" in2="colorOut"/></filter><path fill="#4c535d" d="M147 0H94L2-248h55l64 206c17-72 42-137 63-206h54" id="bn"/><path fill="#4c535d" d="M88-194c31-1 46 15 58 34l-1-101h50l1 261h-48c-2-10 0-23-3-31C134-8 116 4 84 4 32 4 16-41 15-95c0-56 19-97 73-99zm17 164c33 0 40-30 41-66 1-37-9-64-41-64s-38 30-39 65c0 43 13 65 39 65" id="bo"/><path fill="#4c535d" d="M110-194c64 0 96 36 96 99 0 64-35 99-97 99-61 0-95-36-95-99 0-62 34-99 96-99zm-1 164c35 0 45-28 45-65 0-40-10-65-43-65-34 0-45 26-45 65 0 36 10 65 43 65" id="bp"/><g id="A"><use transform="matrix(0.049382716049382706,0,0,0.049382716049382706,0,0)" xlink:href="#bn"/><use transform="matrix(0.049382716049382706,0,0,0.049382716049382706,10.864197530864196,0)" xlink:href="#ap"/><use transform="matrix(0.049382716049382706,0,0,0.049382716049382706,20.740740740740737,0)" xlink:href="#an"/><use transform="matrix(0.049382716049382706,0,0,0.049382716049382706,31.55555555555555,0)" xlink:href="#bo"/><use transform="matrix(0.049382716049382706,0,0,0.049382716049382706,42.37037037037037,0)" xlink:href="#bp"/><use transform="matrix(0.049382716049382706,0,0,0.049382716049382706,53.185185185185176,0)" xlink:href="#aq"/></g><path fill="#4c535d" d="M168-19C124 19 11 11 16-68c3-43 29-60 59-75-25-44-12-111 53-106 37 3 64 15 64 52 0 43-40 52-69 68 12 22 27 41 43 59 14-19 21-38 28-64l37 13c-8 29-19 52-34 74 12 10 32 16 52 10v35c-28 11-65-2-81-17zm-58-139c19-9 43-14 43-39 0-14-10-22-25-22-34 0-33 41-18 61zM60-68c-3 40 55 47 79 25-18-20-34-42-48-67-18 8-30 20-31 42" id="bq"/><use transform="matrix(0.049382716049382706,0,0,0.049382716049382706,0,0)" xlink:href="#bq" id="B"/><path fill="#4c535d" d="M24 0v-248h52v208h133V0H24" id="br"/><path fill="#4c535d" d="M135-194c52 0 70 43 70 98 0 56-19 99-73 100-30 1-46-15-58-35L72 0H24l1-261h50v104c11-23 29-37 60-37zM114-30c31 0 40-27 40-66 0-37-7-63-39-63s-41 28-41 65c0 36 8 64 40 64" id="bs"/><g id="C"><use transform="matrix(0.049382716049382706,0,0,0.049382716049382706,0,0)" xlink:href="#br"/><use transform="matrix(0.049382716049382706,0,0,0.049382716049382706,10.814814814814813,0)" xlink:href="#as"/><use transform="matrix(0.049382716049382706,0,0,0.049382716049382706,15.753086419753084,0)" xlink:href="#bs"/><use transform="matrix(0.049382716049382706,0,0,0.049382716049382706,26.567901234567895,0)" xlink:href="#aq"/><use transform="matrix(0.049382716049382706,0,0,0.049382716049382706,33.48148148148148,0)" xlink:href="#au"/><use transform="matrix(0.049382716049382706,0,0,0.049382716049382706,43.358024691358025,0)" xlink:href="#aq"/><use transform="matrix(0.049382716049382706,0,0,0.049382716049382706,50.27160493827161,0)" xlink:href="#aB"/></g><g id="D"><use transform="matrix(0.049382716049382706,0,0,0.049382716049382706,0,0)" xlink:href="#au"/><use transform="matrix(0.049382716049382706,0,0,0.049382716049382706,9.87654320987654,0)" xlink:href="#aq"/><use transform="matrix(0.049382716049382706,0,0,0.049382716049382706,16.79012345679012,0)" xlink:href="#ao"/><use transform="matrix(0.049382716049382706,0,0,0.049382716049382706,22.66666666666666,0)" xlink:href="#as"/><use transform="matrix(0.049382716049382706,0,0,0.049382716049382706,27.604938271604926,0)" xlink:href="#av"/><use transform="matrix(0.049382716049382706,0,0,0.049382716049382706,33.481481481481474,0)" xlink:href="#au"/><use transform="matrix(0.049382716049382706,0,0,0.049382716049382706,43.35802469135801,0)" xlink:href="#aw"/><use transform="matrix(0.049382716049382706,0,0,0.049382716049382706,53.234567901234556,0)" xlink:href="#ao"/><use transform="matrix(0.049382716049382706,0,0,0.049382716049382706,59.1111111111111,0)" xlink:href="#at"/></g><filter id="z" filterUnits="objectBoundingBox" x="-.03" y="-.03" width="1.05" height="1.14"><feOffset result="offOut" in="SourceAlpha" dy="6"/><feGaussianBlur result="blurOut" in="offOut" stdDeviation="5"/><feColorMatrix result="colorOut" in="blurOut" values="0 0 0 0 0 0 0 0 0 0 0 0 0 0 0 0 0 0 0.5019607843137255 0"/><feBlend in="SourceGraphic" in2="colorOut"/></filter><g id="F"><use transform="matrix(0.049382716049382706,0,0,0.049382716049382706,0,0)" xlink:href="#be"/><use transform="matrix(0.049382716049382706,0,0,0.049382716049382706,8.888888888888888,0)" xlink:href="#bc"/><use transform="matrix(0.049382716049382706,0,0,0.049382716049382706,18.76543209876543,0)" xlink:href="#aV"/><use transform="matrix(0.049382716049382706,0,0,0.049382716049382706,28.64197530864197,0)" xlink:href="#bl"/><use transform="matrix(0.049382716049382706,0,0,0.049382716049382706,38.51851851851851,0)" xlink:href="#aU"/><use transform="matrix(0.049382716049382706,0,0,0.049382716049382706,48.39506172839505,0)" xlink:href="#bm"/><use transform="matrix(0.049382716049382706,0,0,0.049382716049382706,54.271604938271594,0)" xlink:href="#bk"/><use transform="matrix(0.049382716049382706,0,0,0.049382716049382706,60.14814814814814,0)" xlink:href="#aZ"/><use transform="matrix(0.049382716049382706,0,0,0.049382716049382706,69.03703703703702,0)" xlink:href="#bj"/><use transform="matrix(0.049382716049382706,0,0,0.049382716049382706,78.91358024691357,0)" xlink:href="#bc"/><use transform="matrix(0.049382716049382706,0,0,0.049382716049382706,88.79012345679011,0)" xlink:href="#aT"/><use transform="matrix(0.049382716049382706,0,0,0.049382716049382706,97.679012345679,0)" xlink:href="#aY"/><use transform="matrix(0.049382716049382706,0,0,0.049382716049382706,101.58024691358023,0)" xlink:href="#ba"/><use transform="matrix(0.049382716049382706,0,0,0.049382716049382706,106.51851851851849,0)" xlink:href="#aY"/><use transform="matrix(0.049382716049382706,0,0,0.049382716049382706,110.4197530864197,0)" xlink:href="#aT"/></g><filter id="E" filterUnits="objectBoundingBox" x="-.03" y="-.05" width="1.06" height="1.26"><feOffset result="offOut" in="SourceAlpha" dy="6"/><feGaussianBlur result="blurOut" in="offOut" stdDeviation="5"/><feColorMatrix result="colorOut" in="blurOut" values="0 0 0 0 0 0 0 0 0 0 0 0 0 0 0 0 0 0 0.5019607843137255 0"/><feBlend in="SourceGraphic" in2="colorOut"/></filter><g id="H"><use transform="matrix(0.049382716049382706,0,0,0.049382716049382706,0,0)" xlink:href="#aS"/><use transform="matrix(0.049382716049382706,0,0,0.049382716049382706,5.876543209876542,0)" xlink:href="#aX"/><use transform="matrix(0.049382716049382706,0,0,0.049382716049382706,15.75308641975308,0)" xlink:href="#bj"/><use transform="matrix(0.049382716049382706,0,0,0.049382716049382706,25.629629629629626,0)" xlink:href="#bj"/></g><g id="I"><use transform="matrix(0.049382716049382706,0,0,0.049382716049382706,0,0)" xlink:href="#aZ"/><use transform="matrix(0.049382716049382706,0,0,0.049382716049382706,8.888888888888888,0)" xlink:href="#bc"/><use transform="matrix(0.049382716049382706,0,0,0.049382716049382706,18.76543209876543,0)" xlink:href="#bb"/><use transform="matrix(0.049382716049382706,0,0,0.049382716049382706,22.666666666666664,0)" xlink:href="#ba"/><use transform="matrix(0.049382716049382706,0,0,0.049382716049382706,27.60493827160494,0)" xlink:href="#bk"/><use transform="matrix(0.049382716049382706,0,0,0.049382716049382706,33.48148148148148,0)" xlink:href="#aT"/><use transform="matrix(0.049382716049382706,0,0,0.049382716049382706,42.37037037037037,0)" xlink:href="#aU"/><use transform="matrix(0.049382716049382706,0,0,0.049382716049382706,52.24691358024691,0)" xlink:href="#aV"/><use transform="matrix(0.049382716049382706,0,0,0.049382716049382706,62.123456790123456,0)" xlink:href="#aW"/><use transform="matrix(0.049382716049382706,0,0,0.049382716049382706,67.06172839506172,0)" xlink:href="#aX"/><use transform="matrix(0.049382716049382706,0,0,0.049382716049382706,76.93827160493827,0)" xlink:href="#aY"/><use transform="matrix(0.049382716049382706,0,0,0.049382716049382706,80.83950617283949,0)" xlink:href="#aV"/><use transform="matrix(0.049382716049382706,0,0,0.049382716049382706,90.71604938271604,0)" xlink:href="#bc"/><use transform="matrix(0.049382716049382706,0,0,0.049382716049382706,100.59259259259258,0)" xlink:href="#bl"/></g><path fill="#fff" d="M179-190L93 31C79 59 56 82 12 73V49c39 6 53-20 64-50L1-190h34L92-34l54-156h33" id="bt"/><g id="J"><use transform="matrix(0.049382716049382706,0,0,0.049382716049382706,0,0)" xlink:href="#aW"/><use transform="matrix(0.049382716049382706,0,0,0.049382716049382706,4.93827160493827,0)" xlink:href="#bc"/><use transform="matrix(0.049382716049382706,0,0,0.049382716049382706,14.814814814814811,0)" xlink:href="#bb"/><use transform="matrix(0.049382716049382706,0,0,0.049382716049382706,18.716049382716044,0)" xlink:href="#bc"/><use transform="matrix(0.049382716049382706,0,0,0.049382716049382706,28.592592592592588,0)" xlink:href="#bd"/><use transform="matrix(0.049382716049382706,0,0,0.049382716049382706,43.35802469135801,0)" xlink:href="#bc"/><use transform="matrix(0.049382716049382706,0,0,0.049382716049382706,53.234567901234556,0)" xlink:href="#aW"/><use transform="matrix(0.049382716049382706,0,0,0.049382716049382706,58.17283950617283,0)" xlink:href="#bm"/><use transform="matrix(0.049382716049382706,0,0,0.049382716049382706,64.04938271604937,0)" xlink:href="#bt"/></g><path fill="#fff" d="M106-169C34-169 62-67 57 0H25v-261h32l-1 103c12-21 28-36 61-36 89 0 53 116 60 194h-32v-121c2-32-8-49-39-48" id="bu"/><g id="K"><use transform="matrix(0.049382716049382706,0,0,0.049382716049382706,0,0)" xlink:href="#aZ"/><use transform="matrix(0.049382716049382706,0,0,0.049382716049382706,8.888888888888888,0)" xlink:href="#aT"/><use transform="matrix(0.049382716049382706,0,0,0.049382716049382706,17.777777777777775,0)" xlink:href="#bu"/><use transform="matrix(0.049382716049382706,0,0,0.049382716049382706,27.654320987654316,0)" xlink:href="#bc"/><use transform="matrix(0.049382716049382706,0,0,0.049382716049382706,37.53086419753086,0)" xlink:href="#bd"/><use transform="matrix(0.049382716049382706,0,0,0.049382716049382706,52.29629629629628,0)" xlink:href="#aX"/><use transform="matrix(0.049382716049382706,0,0,0.049382716049382706,62.17283950617284,0)" xlink:href="#bf"/></g><filter id="G" filterUnits="objectBoundingBox" x="-.03" y="-.05" width="1.06" height="1.26"><feOffset result="offOut" in="SourceAlpha" dy="6"/><feGaussianBlur result="blurOut" in="offOut" stdDeviation="5"/><feColorMatrix result="colorOut" in="blurOut" values="0 0 0 0 0 0 0 0 0 0 0 0 0 0 0 0 0 0 0.5019607843137255 0"/><feBlend in="SourceGraphic" in2="colorOut"/></filter><g id="M"><use transform="matrix(0.06172839506172839,0,0,0.06172839506172839,0,0)" xlink:href="#aO"/><use transform="matrix(0.06172839506172839,0,0,0.06172839506172839,14.814814814814813,0)" xlink:href="#aP"/><use transform="matrix(0.06172839506172839,0,0,0.06172839506172839,27.160493827160494,0)" xlink:href="#aQ"/><use transform="matrix(0.06172839506172839,0,0,0.06172839506172839,40.67901234567901,0)" xlink:href="#aD"/><use transform="matrix(0.06172839506172839,0,0,0.06172839506172839,53.02469135802469,0)" xlink:href="#aK"/><use transform="matrix(0.06172839506172839,0,0,0.06172839506172839,72.77777777777777,0)" xlink:href="#aR"/></g><path fill="#fff" d="M85 4C-2 5 27-109 22-190h50c7 57-23 150 33 157 60-5 35-97 40-157h50l1 190h-47c-2-12 1-28-3-38-12 25-28 42-61 42" id="bv"/><path fill="#fff" d="M25-224v-37h50v37H25zM25 0v-190h50V0H25" id="bw"/><g id="N"><use transform="matrix(0.06172839506172839,0,0,0.06172839506172839,0,0)" xlink:href="#aC"/><use transform="matrix(0.06172839506172839,0,0,0.06172839506172839,15.987654320987653,0)" xlink:href="#aD"/><use transform="matrix(0.06172839506172839,0,0,0.06172839506172839,28.333333333333332,0)" xlink:href="#aE"/><use transform="matrix(0.06172839506172839,0,0,0.06172839506172839,40.67901234567901,0)" xlink:href="#aF"/><use transform="matrix(0.06172839506172839,0,0,0.06172839506172839,54.19753086419753,0)" xlink:href="#aG"/><use transform="matrix(0.06172839506172839,0,0,0.06172839506172839,60.370370370370374,0)" xlink:href="#bv"/><use transform="matrix(0.06172839506172839,0,0,0.06172839506172839,73.88888888888889,0)" xlink:href="#aL"/><use transform="matrix(0.06172839506172839,0,0,0.06172839506172839,81.23456790123457,0)" xlink:href="#bw"/><use transform="matrix(0.06172839506172839,0,0,0.06172839506172839,87.4074074074074,0)" xlink:href="#aF"/><use transform="matrix(0.06172839506172839,0,0,0.06172839506172839,100.92592592592592,0)" xlink:href="#bi"/></g><path fill="#fff" d="M24-248c93 1 206-16 204 79-1 75-69 88-152 82V0H24v-248zm52 121c47 0 100 7 100-41 0-47-54-39-100-39v80" id="bx"/><g id="O"><use transform="matrix(0.06172839506172839,0,0,0.06172839506172839,0,0)" xlink:href="#bx"/><use transform="matrix(0.06172839506172839,0,0,0.06172839506172839,14.814814814814813,0)" xlink:href="#aM"/><use transform="matrix(0.06172839506172839,0,0,0.06172839506172839,23.456790123456788,0)" xlink:href="#aF"/><use transform="matrix(0.06172839506172839,0,0,0.06172839506172839,36.9753086419753,0)" xlink:href="#aP"/><use transform="matrix(0.06172839506172839,0,0,0.06172839506172839,49.32098765432098,0)" xlink:href="#aD"/><use transform="matrix(0.06172839506172839,0,0,0.06172839506172839,61.66666666666666,0)" xlink:href="#aE"/><use transform="matrix(0.06172839506172839,0,0,0.06172839506172839,74.01234567901234,0)" xlink:href="#aE"/></g><filter id="L" filterUnits="objectBoundingBox" x="-.03" y="-.05" width="1.06" height="1.26"><feOffset result="offOut" in="SourceAlpha" dy="6"/><feGaussianBlur result="blurOut" in="offOut" stdDeviation="5"/><feColorMatrix result="colorOut" in="blurOut" values="0 0 0 0 0 0 0 0 0 0 0 0 0 0 0 0 0 0 0.5019607843137255 0"/><feBlend in="SourceGraphic" in2="colorOut"/></filter><path fill="#333" d="M88-194c31-1 46 15 58 34l-1-101h50l1 261h-48c-2-10 0-23-3-31C134-8 116 4 84 4 32 4 16-41 15-95c0-56 19-97 73-99zm17 164c33 0 40-30 41-66 1-37-9-64-41-64s-38 30-39 65c0 43 13 65 39 65" id="by"/><path fill="#333" d="M185-48c-13 30-37 53-82 52C43 2 14-33 14-96s30-98 90-98c62 0 83 45 84 108H66c0 31 8 55 39 56 18 0 30-7 34-22zm-45-69c5-46-57-63-70-21-2 6-4 13-4 21h74" id="bz"/><path fill="#333" d="M135-194c53 0 70 44 70 98 0 56-19 98-73 100-31 1-45-17-59-34 3 33 2 69 2 105H25l-1-265h48c2 10 0 23 3 31 11-24 29-35 60-35zM114-30c33 0 39-31 40-66 0-38-9-64-40-64-56 0-55 130 0 130" id="bA"/><path fill="#333" d="M135-194c87-1 58 113 63 194h-50c-7-57 23-157-34-157-59 0-34 97-39 157H25l-1-190h47c2 12-1 28 3 38 12-26 28-41 61-42" id="bB"/><path fill="#333" d="M190-63c-7 42-38 67-86 67-59 0-84-38-90-98-12-110 154-137 174-36l-49 2c-2-19-15-32-35-32-30 0-35 28-38 64-6 74 65 87 74 30" id="bC"/><path fill="#333" d="M25-224v-37h50v37H25zM25 0v-190h50V0H25" id="bD"/><path fill="#333" d="M137-138c1-29-70-34-71-4 15 46 118 7 119 86 1 83-164 76-172 9l43-7c4 19 20 25 44 25 33 8 57-30 24-41C81-84 22-81 20-136c-2-80 154-74 161-7" id="bE"/><g id="P"><use transform="matrix(0.04938271604938272,0,0,0.04938271604938272,0,0)" xlink:href="#by"/><use transform="matrix(0.04938271604938272,0,0,0.04938271604938272,10.814814814814815,0)" xlink:href="#bz"/><use transform="matrix(0.04938271604938272,0,0,0.04938271604938272,20.69135802469136,0)" xlink:href="#bA"/><use transform="matrix(0.04938271604938272,0,0,0.04938271604938272,31.506172839506174,0)" xlink:href="#bz"/><use transform="matrix(0.04938271604938272,0,0,0.04938271604938272,41.38271604938272,0)" xlink:href="#bB"/><use transform="matrix(0.04938271604938272,0,0,0.04938271604938272,52.19753086419754,0)" xlink:href="#by"/><use transform="matrix(0.04938271604938272,0,0,0.04938271604938272,63.01234567901235,0)" xlink:href="#bz"/><use transform="matrix(0.04938271604938272,0,0,0.04938271604938272,72.8888888888889,0)" xlink:href="#bB"/><use transform="matrix(0.04938271604938272,0,0,0.04938271604938272,83.70370370370371,0)" xlink:href="#bC"/><use transform="matrix(0.04938271604938272,0,0,0.04938271604938272,93.58024691358025,0)" xlink:href="#bD"/><use transform="matrix(0.04938271604938272,0,0,0.04938271604938272,98.51851851851853,0)" xlink:href="#bz"/><use transform="matrix(0.04938271604938272,0,0,0.04938271604938272,108.39506172839508,0)" xlink:href="#bE"/></g><path fill="#fff" d="M199 0l-22-63H83L61 0H9l90-248h61L250 0h-51zm-33-102l-36-108c-10 38-24 72-36 108h72" id="bF"/><g id="R"><use transform="matrix(0.06172839506172839,0,0,0.06172839506172839,0,0)" xlink:href="#bF"/><use transform="matrix(0.06172839506172839,0,0,0.06172839506172839,15.987654320987653,0)" xlink:href="#bh"/><use transform="matrix(0.06172839506172839,0,0,0.06172839506172839,29.50617283950617,0)" xlink:href="#bh"/><use transform="matrix(0.06172839506172839,0,0,0.06172839506172839,43.02469135802469,0)" xlink:href="#aG"/><use transform="matrix(0.06172839506172839,0,0,0.06172839506172839,49.19753086419753,0)" xlink:href="#bw"/><use transform="matrix(0.06172839506172839,0,0,0.06172839506172839,55.370370370370374,0)" xlink:href="#aP"/><use transform="matrix(0.06172839506172839,0,0,0.06172839506172839,67.71604938271605,0)" xlink:href="#aR"/><use transform="matrix(0.06172839506172839,0,0,0.06172839506172839,80.06172839506173,0)" xlink:href="#aL"/><use transform="matrix(0.06172839506172839,0,0,0.06172839506172839,87.40740740740742,0)" xlink:href="#bw"/><use transform="matrix(0.06172839506172839,0,0,0.06172839506172839,93.58024691358025,0)" xlink:href="#aF"/><use transform="matrix(0.06172839506172839,0,0,0.06172839506172839,107.09876543209877,0)" xlink:href="#bi"/></g><filter id="Q" filterUnits="objectBoundingBox" x="-.05" y="-.05" width="1.1" height="1.26"><feOffset result="offOut" in="SourceAlpha" dy="6"/><feGaussianBlur result="blurOut" in="offOut" stdDeviation="5"/><feColorMatrix result="colorOut" in="blurOut" values="0 0 0 0 0 0 0 0 0 0 0 0 0 0 0 0 0 0 0.5019607843137255 0"/><feBlend in="SourceGraphic" in2="colorOut"/></filter><path fill="#333" d="M133-34C117-15 103 5 69 4 32 3 11-16 11-54c-1-60 55-63 116-61 1-26-3-47-28-47-18 1-26 9-28 27l-52-2c7-38 36-58 82-57s74 22 75 68l1 82c-1 14 12 18 25 15v27c-30 8-71 5-69-32zm-48 3c29 0 43-24 42-57-32 0-66-3-65 30 0 17 8 27 23 27" id="bG"/><g id="S"><use transform="matrix(0.04938271604938272,0,0,0.04938271604938272,0,0)" xlink:href="#bG"/><use transform="matrix(0.04938271604938272,0,0,0.04938271604938272,9.876543209876544,0)" xlink:href="#bA"/><use transform="matrix(0.04938271604938272,0,0,0.04938271604938272,20.69135802469136,0)" xlink:href="#bA"/></g><path fill="#333" d="M115-3C79 11 28 4 28-45v-112H4v-33h27l15-45h31v45h36v33H77v99c-1 23 16 31 38 25v30" id="bH"/><path fill="#333" d="M25 0v-261h50V0H25" id="bI"/><path fill="#333" d="M220-157c-53 9-28 100-34 157h-49v-107c1-27-5-49-29-50C55-147 81-57 75 0H25l-1-190h47c2 12-1 28 3 38 10-53 101-56 108 0 13-22 24-43 59-42 82 1 51 116 57 194h-49v-107c-1-25-5-48-29-50" id="bJ"/><path fill="#333" d="M135-150c-39-12-60 13-60 57V0H25l-1-190h47c2 13-1 29 3 40 6-28 27-53 61-41v41" id="bK"/><path fill="#333" d="M123 10C108 53 80 86 19 72V37c35 8 53-11 59-39L3-190h52l48 148c12-52 28-100 44-148h51" id="bL"/><g id="T"><use transform="matrix(0.04938271604938272,0,0,0.04938271604938272,0,0)" xlink:href="#bH"/><use transform="matrix(0.04938271604938272,0,0,0.04938271604938272,5.8765432098765435,0)" xlink:href="#bz"/><use transform="matrix(0.04938271604938272,0,0,0.04938271604938272,15.753086419753087,0)" xlink:href="#bI"/><use transform="matrix(0.04938271604938272,0,0,0.04938271604938272,20.69135802469136,0)" xlink:href="#bz"/><use transform="matrix(0.04938271604938272,0,0,0.04938271604938272,30.567901234567906,0)" xlink:href="#bJ"/><use transform="matrix(0.04938271604938272,0,0,0.04938271604938272,46.370370370370374,0)" xlink:href="#bz"/><use transform="matrix(0.04938271604938272,0,0,0.04938271604938272,56.24691358024692,0)" xlink:href="#bH"/><use transform="matrix(0.04938271604938272,0,0,0.04938271604938272,62.12345679012346,0)" xlink:href="#bK"/><use transform="matrix(0.04938271604938272,0,0,0.04938271604938272,69.03703703703704,0)" xlink:href="#bL"/></g><path fill="#333" d="M114-157C55-157 80-60 75 0H25v-261h50l-1 109c12-26 28-41 61-42 86-1 58 113 63 194h-50c-7-57 23-157-34-157" id="bM"/><g id="U"><use transform="matrix(0.04938271604938272,0,0,0.04938271604938272,0,0)" xlink:href="#bE"/><use transform="matrix(0.04938271604938272,0,0,0.04938271604938272,9.876543209876544,0)" xlink:href="#bC"/><use transform="matrix(0.04938271604938272,0,0,0.04938271604938272,19.75308641975309,0)" xlink:href="#bM"/><use transform="matrix(0.04938271604938272,0,0,0.04938271604938272,30.567901234567906,0)" xlink:href="#bz"/><use transform="matrix(0.04938271604938272,0,0,0.04938271604938272,40.44444444444445,0)" xlink:href="#bJ"/><use transform="matrix(0.04938271604938272,0,0,0.04938271604938272,56.24691358024692,0)" xlink:href="#bG"/></g><path fill="#333" d="M110-194c64 0 96 36 96 99 0 64-35 99-97 99-61 0-95-36-95-99 0-62 34-99 96-99zm-1 164c35 0 45-28 45-65 0-40-10-65-43-65-34 0-45 26-45 65 0 36 10 65 43 65" id="bN"/><g id="V"><use transform="matrix(0.04938271604938272,0,0,0.04938271604938272,0,0)" xlink:href="#bC"/><use transform="matrix(0.04938271604938272,0,0,0.04938271604938272,9.876543209876544,0)" xlink:href="#bN"/><use transform="matrix(0.04938271604938272,0,0,0.04938271604938272,20.69135802469136,0)" xlink:href="#bI"/><use transform="matrix(0.04938271604938272,0,0,0.04938271604938272,25.629629629629633,0)" xlink:href="#bI"/><use transform="matrix(0.04938271604938272,0,0,0.04938271604938272,30.567901234567906,0)" xlink:href="#bz"/><use transform="matrix(0.04938271604938272,0,0,0.04938271604938272,40.44444444444445,0)" xlink:href="#bC"/><use transform="matrix(0.04938271604938272,0,0,0.04938271604938272,50.320987654320994,0)" xlink:href="#bH"/></g><path fill="#333" d="M135-194c52 0 70 43 70 98 0 56-19 99-73 100-30 1-46-15-58-35L72 0H24l1-261h50v104c11-23 29-37 60-37zM114-30c31 0 40-27 40-66 0-37-7-63-39-63s-41 28-41 65c0 36 8 64 40 64" id="bO"/><path fill="#333" d="M85 4C-2 5 27-109 22-190h50c7 57-23 150 33 157 60-5 35-97 40-157h50l1 190h-47c-2-12 1-28-3-38-12 25-28 42-61 42" id="bP"/><g id="W"><use transform="matrix(0.04938271604938272,0,0,0.04938271604938272,0,0)" xlink:href="#bO"/><use transform="matrix(0.04938271604938272,0,0,0.04938271604938272,10.814814814814815,0)" xlink:href="#bP"/><use transform="matrix(0.04938271604938272,0,0,0.04938271604938272,21.62962962962963,0)" xlink:href="#bD"/><use transform="matrix(0.04938271604938272,0,0,0.04938271604938272,26.567901234567902,0)" xlink:href="#bI"/><use transform="matrix(0.04938271604938272,0,0,0.04938271604938272,31.506172839506174,0)" xlink:href="#by"/></g><g id="X"><use transform="matrix(0.04938271604938272,0,0,0.04938271604938272,0,0)" xlink:href="#bA"/><use transform="matrix(0.04938271604938272,0,0,0.04938271604938272,10.814814814814815,0)" xlink:href="#bK"/><use transform="matrix(0.04938271604938272,0,0,0.04938271604938272,17.728395061728396,0)" xlink:href="#bN"/><use transform="matrix(0.04938271604938272,0,0,0.04938271604938272,28.543209876543205,0)" xlink:href="#bC"/><use transform="matrix(0.04938271604938272,0,0,0.04938271604938272,38.41975308641975,0)" xlink:href="#bz"/><use transform="matrix(0.04938271604938272,0,0,0.04938271604938272,48.2962962962963,0)" xlink:href="#bE"/><use transform="matrix(0.04938271604938272,0,0,0.04938271604938272,58.17283950617284,0)" xlink:href="#bE"/></g><path fill="#333" d="M195-6C206 82 75 100 31 46c-4-6-6-13-8-21l49-6c3 16 16 24 34 25 40 0 42-37 40-79-11 22-30 35-61 35-53 0-70-43-70-97 0-56 18-96 73-97 30 0 46 14 59 34l2-30h47zm-90-29c32 0 41-27 41-63 0-35-9-62-40-62-32 0-39 29-40 63 0 36 9 62 39 62" id="bQ"/><g id="Y"><use transform="matrix(0.04938271604938272,0,0,0.04938271604938272,0,0)" xlink:href="#bQ"/><use transform="matrix(0.04938271604938272,0,0,0.04938271604938272,10.814814814814815,0)" xlink:href="#bz"/><use transform="matrix(0.04938271604938272,0,0,0.04938271604938272,20.69135802469136,0)" xlink:href="#bB"/><use transform="matrix(0.04938271604938272,0,0,0.04938271604938272,31.506172839506174,0)" xlink:href="#bz"/><use transform="matrix(0.04938271604938272,0,0,0.04938271604938272,41.38271604938272,0)" xlink:href="#bK"/><use transform="matrix(0.04938271604938272,0,0,0.04938271604938272,48.296296296296305,0)" xlink:href="#bG"/><use transform="matrix(0.04938271604938272,0,0,0.04938271604938272,58.17283950617284,0)" xlink:href="#bH"/><use transform="matrix(0.04938271604938272,0,0,0.04938271604938272,64.0493827160494,0)" xlink:href="#bz"/></g></defs></g></svg>